<svg xmlns="http://www.w3.org/2000/svg" viewBox="0 0 1180 640" width="1180" height="640" font-family="Inter, 'Helvetica Neue', 'Segoe UI', system-ui, Arial, sans-serif">
<defs>
<filter id="soft" x="-30%" y="-30%" width="160%" height="160%"><feDropShadow dx="0" dy="2" stdDeviation="4" flood-color="#000000" flood-opacity="0.45"/></filter>
<marker id="ar-data" markerWidth="10" markerHeight="10" refX="7.5" refY="4" orient="auto" markerUnits="userSpaceOnUse"><path d="M0,0 L8,4 L0,8 Z" fill="#7C8BA1"/></marker>
<marker id="ar-ctrl" markerWidth="10" markerHeight="10" refX="7.5" refY="4" orient="auto" markerUnits="userSpaceOnUse"><path d="M0,0 L8,4 L0,8 Z" fill="#F97316"/></marker>
<pattern id="grid" width="40" height="40" patternUnits="userSpaceOnUse"><path d="M40 0 L0 0 0 40" fill="none" stroke="#1B2740" stroke-width="1"/></pattern>
<linearGradient id="bgg" x1="0" y1="0" x2="0.6" y2="1"><stop offset="0" stop-color="#070A12"/><stop offset="1" stop-color="#0E1626"/></linearGradient>
</defs>
<rect width="1180" height="640" fill="url(#bgg)"/>
<rect width="1180" height="640" fill="url(#grid)" opacity="0.5"/>
<rect x="40" y="34" width="34" height="6" rx="3" fill="#38BDF8"/>
<text x="40" y="74" font-family="Inter, 'Helvetica Neue', 'Segoe UI', system-ui, Arial, sans-serif" font-size="30" font-weight="750" fill="#F8FAFC">Arithmetic Logic Unit</text>
<text x="40" y="100" font-family="Inter, 'Helvetica Neue', 'Segoe UI', system-ui, Arial, sans-serif" font-size="14.5" fill="#9CA3AF">All RV32I integer operations; a 4-bit code selects the result</text>
<rect x="60" y="230" width="58" height="30" rx="15" fill="#123524" stroke="#6EE7B7" stroke-width="1.5"/>
<text x="89.0" y="249.5" text-anchor="middle" font-family="ui-monospace, 'SF Mono', Menlo, Consolas, monospace" font-size="12.5" font-weight="600" fill="#DCFCE7">a</text>
<rect x="118.0" y="236" width="28" height="18" rx="9" fill="#111827" stroke="#38BDF8" stroke-width="1" opacity="0.95"/>
<text x="132" y="249" text-anchor="middle" font-family="ui-monospace, 'SF Mono', Menlo, Consolas, monospace" font-size="10.5" fill="#38BDF8">32</text>
<rect x="60" y="360" width="58" height="30" rx="15" fill="#123524" stroke="#6EE7B7" stroke-width="1.5"/>
<text x="89.0" y="379.5" text-anchor="middle" font-family="ui-monospace, 'SF Mono', Menlo, Consolas, monospace" font-size="12.5" font-weight="600" fill="#DCFCE7">b</text>
<rect x="118.0" y="366" width="28" height="18" rx="9" fill="#111827" stroke="#38BDF8" stroke-width="1" opacity="0.95"/>
<text x="132" y="379" text-anchor="middle" font-family="ui-monospace, 'SF Mono', Menlo, Consolas, monospace" font-size="10.5" fill="#38BDF8">32</text>
<rect x="60" y="470" width="94" height="30" rx="15" fill="#123524" stroke="#6EE7B7" stroke-width="1.5"/>
<text x="107.0" y="489.5" text-anchor="middle" font-family="ui-monospace, 'SF Mono', Menlo, Consolas, monospace" font-size="12.5" font-weight="600" fill="#DCFCE7">alu_ctrl</text>
<rect x="158.0" y="476" width="20" height="18" rx="9" fill="#111827" stroke="#38BDF8" stroke-width="1" opacity="0.95"/>
<text x="168" y="489" text-anchor="middle" font-family="ui-monospace, 'SF Mono', Menlo, Consolas, monospace" font-size="10.5" fill="#38BDF8">4</text>
<rect x="300" y="150" width="110" height="34" rx="9" fill="#3B1D0B" stroke="#F97316" stroke-width="1.4"/>
<text x="355.0" y="172" text-anchor="middle" font-family="ui-monospace, 'SF Mono', Menlo, Consolas, monospace" font-size="13" font-weight="650" fill="#FFEDD5">ADD</text>
<path d="M 118 245 L 238.0 245.0 Q 250 245 250.0 233.0 L 250.0 179.0 Q 250 167.0 262.0 167.0 L 300 167.0 " fill="none" stroke="#64748B" stroke-width="1.6" stroke-linecap="round" stroke-linejoin="round" marker-end="url(#ar-data)"/>
<rect x="300" y="190" width="110" height="34" rx="9" fill="#3B1D0B" stroke="#F97316" stroke-width="1.4"/>
<text x="355.0" y="212" text-anchor="middle" font-family="ui-monospace, 'SF Mono', Menlo, Consolas, monospace" font-size="13" font-weight="650" fill="#FFEDD5">SUB</text>
<path d="M 118 245 L 238.0 245.0 Q 250 245 250.0 233.0 L 250.0 219.0 Q 250 207.0 262.0 207.0 L 300 207.0 " fill="none" stroke="#64748B" stroke-width="1.6" stroke-linecap="round" stroke-linejoin="round" marker-end="url(#ar-data)"/>
<rect x="300" y="230" width="110" height="34" rx="9" fill="#3B1D0B" stroke="#F97316" stroke-width="1.4"/>
<text x="355.0" y="252" text-anchor="middle" font-family="ui-monospace, 'SF Mono', Menlo, Consolas, monospace" font-size="13" font-weight="650" fill="#FFEDD5">AND</text>
<path d="M 118 245 L 238.0 245.0 Q 250 245 250.0 246.0 L 250.0 246.0 Q 250 247.0 262.0 247.0 L 300 247.0 " fill="none" stroke="#64748B" stroke-width="1.6" stroke-linecap="round" stroke-linejoin="round" marker-end="url(#ar-data)"/>
<rect x="300" y="270" width="110" height="34" rx="9" fill="#3B1D0B" stroke="#F97316" stroke-width="1.4"/>
<text x="355.0" y="292" text-anchor="middle" font-family="ui-monospace, 'SF Mono', Menlo, Consolas, monospace" font-size="13" font-weight="650" fill="#FFEDD5">OR</text>
<path d="M 118 245 L 238.0 245.0 Q 250 245 250.0 257.0 L 250.0 275.0 Q 250 287.0 262.0 287.0 L 300 287.0 " fill="none" stroke="#64748B" stroke-width="1.6" stroke-linecap="round" stroke-linejoin="round" marker-end="url(#ar-data)"/>
<rect x="300" y="310" width="110" height="34" rx="9" fill="#3B1D0B" stroke="#F97316" stroke-width="1.4"/>
<text x="355.0" y="332" text-anchor="middle" font-family="ui-monospace, 'SF Mono', Menlo, Consolas, monospace" font-size="13" font-weight="650" fill="#FFEDD5">XOR</text>
<path d="M 118 245 L 238.0 245.0 Q 250 245 250.0 257.0 L 250.0 315.0 Q 250 327.0 262.0 327.0 L 300 327.0 " fill="none" stroke="#64748B" stroke-width="1.6" stroke-linecap="round" stroke-linejoin="round" marker-end="url(#ar-data)"/>
<rect x="300" y="350" width="110" height="34" rx="9" fill="#3B1D0B" stroke="#F97316" stroke-width="1.4"/>
<text x="355.0" y="372" text-anchor="middle" font-family="ui-monospace, 'SF Mono', Menlo, Consolas, monospace" font-size="13" font-weight="650" fill="#FFEDD5">SLL</text>
<path d="M 118 245 L 238.0 245.0 Q 250 245 250.0 257.0 L 250.0 355.0 Q 250 367.0 262.0 367.0 L 300 367.0 " fill="none" stroke="#64748B" stroke-width="1.6" stroke-linecap="round" stroke-linejoin="round" marker-end="url(#ar-data)"/>
<rect x="300" y="390" width="110" height="34" rx="9" fill="#3B1D0B" stroke="#F97316" stroke-width="1.4"/>
<text x="355.0" y="412" text-anchor="middle" font-family="ui-monospace, 'SF Mono', Menlo, Consolas, monospace" font-size="13" font-weight="650" fill="#FFEDD5">SRL</text>
<path d="M 118 245 L 238.0 245.0 Q 250 245 250.0 257.0 L 250.0 395.0 Q 250 407.0 262.0 407.0 L 300 407.0 " fill="none" stroke="#64748B" stroke-width="1.6" stroke-linecap="round" stroke-linejoin="round" marker-end="url(#ar-data)"/>
<rect x="300" y="430" width="110" height="34" rx="9" fill="#3B1D0B" stroke="#F97316" stroke-width="1.4"/>
<text x="355.0" y="452" text-anchor="middle" font-family="ui-monospace, 'SF Mono', Menlo, Consolas, monospace" font-size="13" font-weight="650" fill="#FFEDD5">SRA</text>
<path d="M 118 245 L 238.0 245.0 Q 250 245 250.0 257.0 L 250.0 435.0 Q 250 447.0 262.0 447.0 L 300 447.0 " fill="none" stroke="#64748B" stroke-width="1.6" stroke-linecap="round" stroke-linejoin="round" marker-end="url(#ar-data)"/>
<rect x="300" y="470" width="110" height="34" rx="9" fill="#3B1D0B" stroke="#F97316" stroke-width="1.4"/>
<text x="355.0" y="492" text-anchor="middle" font-family="ui-monospace, 'SF Mono', Menlo, Consolas, monospace" font-size="13" font-weight="650" fill="#FFEDD5">SLT</text>
<path d="M 118 245 L 238.0 245.0 Q 250 245 250.0 257.0 L 250.0 475.0 Q 250 487.0 262.0 487.0 L 300 487.0 " fill="none" stroke="#64748B" stroke-width="1.6" stroke-linecap="round" stroke-linejoin="round" marker-end="url(#ar-data)"/>
<rect x="300" y="510" width="110" height="34" rx="9" fill="#3B1D0B" stroke="#F97316" stroke-width="1.4"/>
<text x="355.0" y="532" text-anchor="middle" font-family="ui-monospace, 'SF Mono', Menlo, Consolas, monospace" font-size="13" font-weight="650" fill="#FFEDD5">SLTU</text>
<path d="M 118 245 L 238.0 245.0 Q 250 245 250.0 257.0 L 250.0 515.0 Q 250 527.0 262.0 527.0 L 300 527.0 " fill="none" stroke="#64748B" stroke-width="1.6" stroke-linecap="round" stroke-linejoin="round" marker-end="url(#ar-data)"/>
<rect x="300" y="550" width="110" height="34" rx="9" fill="#3B1D0B" stroke="#F97316" stroke-width="1.4"/>
<text x="355.0" y="572" text-anchor="middle" font-family="ui-monospace, 'SF Mono', Menlo, Consolas, monospace" font-size="13" font-weight="650" fill="#FFEDD5">passB</text>
<path d="M 118 245 L 238.0 245.0 Q 250 245 250.0 257.0 L 250.0 555.0 Q 250 567.0 262.0 567.0 L 300 567.0 " fill="none" stroke="#64748B" stroke-width="1.6" stroke-linecap="round" stroke-linejoin="round" marker-end="url(#ar-data)"/>
<rect x="560" y="240" width="100" height="200" rx="14" fill="#08304A" stroke="#38BDF8" stroke-width="1.6" filter="url(#soft)"/>
<text x="610.0" y="336.0" text-anchor="middle" font-family="Inter, 'Helvetica Neue', 'Segoe UI', system-ui, Arial, sans-serif" font-size="16" font-weight="650" fill="#E0F2FE">MUX</text>
<text x="610.0" y="356.0" text-anchor="middle" font-family="Inter, 'Helvetica Neue', 'Segoe UI', system-ui, Arial, sans-serif" font-size="11.5" fill="#8FC4DD">select op</text>
<path d="M 410 167.0 L 508.0 167.0 Q 520 167.0 520.0 179.0 L 520.0 328.0 Q 520 340 532.0 340.0 L 560 340.0 " fill="none" stroke="#64748B" stroke-width="1.4" stroke-linecap="round" stroke-linejoin="round"/>
<path d="M 410 207.0 L 508.0 207.0 Q 520 207.0 520.0 219.0 L 520.0 328.0 Q 520 340 532.0 340.0 L 560 340.0 " fill="none" stroke="#64748B" stroke-width="1.4" stroke-linecap="round" stroke-linejoin="round"/>
<path d="M 410 247.0 L 508.0 247.0 Q 520 247.0 520.0 259.0 L 520.0 328.0 Q 520 340 532.0 340.0 L 560 340.0 " fill="none" stroke="#64748B" stroke-width="1.4" stroke-linecap="round" stroke-linejoin="round"/>
<path d="M 410 287.0 L 508.0 287.0 Q 520 287.0 520.0 299.0 L 520.0 328.0 Q 520 340 532.0 340.0 L 560 340.0 " fill="none" stroke="#64748B" stroke-width="1.4" stroke-linecap="round" stroke-linejoin="round"/>
<path d="M 410 327.0 L 508.0 327.0 Q 520 327.0 520.0 333.5 L 520.0 333.5 Q 520 340 532.0 340.0 L 560 340.0 " fill="none" stroke="#64748B" stroke-width="1.4" stroke-linecap="round" stroke-linejoin="round"/>
<path d="M 410 367.0 L 508.0 367.0 Q 520 367.0 520.0 355.0 L 520.0 352.0 Q 520 340 532.0 340.0 L 560 340.0 " fill="none" stroke="#64748B" stroke-width="1.4" stroke-linecap="round" stroke-linejoin="round"/>
<path d="M 410 407.0 L 508.0 407.0 Q 520 407.0 520.0 395.0 L 520.0 352.0 Q 520 340 532.0 340.0 L 560 340.0 " fill="none" stroke="#64748B" stroke-width="1.4" stroke-linecap="round" stroke-linejoin="round"/>
<path d="M 410 447.0 L 508.0 447.0 Q 520 447.0 520.0 435.0 L 520.0 352.0 Q 520 340 532.0 340.0 L 560 340.0 " fill="none" stroke="#64748B" stroke-width="1.4" stroke-linecap="round" stroke-linejoin="round"/>
<path d="M 410 487.0 L 508.0 487.0 Q 520 487.0 520.0 475.0 L 520.0 352.0 Q 520 340 532.0 340.0 L 560 340.0 " fill="none" stroke="#64748B" stroke-width="1.4" stroke-linecap="round" stroke-linejoin="round"/>
<path d="M 410 527.0 L 508.0 527.0 Q 520 527.0 520.0 515.0 L 520.0 352.0 Q 520 340 532.0 340.0 L 560 340.0 " fill="none" stroke="#64748B" stroke-width="1.4" stroke-linecap="round" stroke-linejoin="round"/>
<path d="M 410 567.0 L 508.0 567.0 Q 520 567.0 520.0 555.0 L 520.0 352.0 Q 520 340 532.0 340.0 L 560 340.0 " fill="none" stroke="#64748B" stroke-width="1.4" stroke-linecap="round" stroke-linejoin="round"/>
<path d="M 154 485 L 598.0 485.0 Q 610 485 610.0 473.0 L 610.0 440 " fill="none" stroke="#F97316" stroke-width="2.0" stroke-linecap="round" stroke-linejoin="round" marker-end="url(#ar-ctrl)"/>
<rect x="720" y="290" width="76" height="30" rx="15" fill="#3B1D0B" stroke="#F97316" stroke-width="1.5"/>
<text x="758.0" y="309.5" text-anchor="middle" font-family="ui-monospace, 'SF Mono', Menlo, Consolas, monospace" font-size="12.5" font-weight="600" fill="#FFEDD5">result</text>
<rect x="796.0" y="296" width="28" height="18" rx="9" fill="#111827" stroke="#38BDF8" stroke-width="1" opacity="0.95"/>
<text x="810" y="309" text-anchor="middle" font-family="ui-monospace, 'SF Mono', Menlo, Consolas, monospace" font-size="10.5" fill="#38BDF8">32</text>
<path d="M 660 340.0 L 720 305 " fill="none" stroke="#38BDF8" stroke-width="3.0" stroke-linecap="round" stroke-linejoin="round" marker-end="url(#ar-data)"/>
<rect x="720" y="380" width="58" height="30" rx="15" fill="#3B1D0B" stroke="#F97316" stroke-width="1.5"/>
<text x="749.0" y="399.5" text-anchor="middle" font-family="ui-monospace, 'SF Mono', Menlo, Consolas, monospace" font-size="12.5" font-weight="600" fill="#FFEDD5">zero</text>
<path d="M 660 420 L 688.0 420.0 Q 700 420 700.0 408.0 L 700.0 407.0 Q 700 395 710.0 395.0 L 720 395 " fill="none" stroke="#64748B" stroke-width="2.2" stroke-linecap="round" stroke-linejoin="round" marker-end="url(#ar-data)"/>
<text x="900" y="250" text-anchor="start" font-family="Inter, 'Helvetica Neue', 'Segoe UI', system-ui, Arial, sans-serif" font-size="12.5" font-weight="400" fill="#9CA3AF">Each operation has its own</text>
<text x="900" y="270" text-anchor="start" font-family="Inter, 'Helvetica Neue', 'Segoe UI', system-ui, Arial, sans-serif" font-size="12.5" font-weight="400" fill="#9CA3AF">functional block (adder,</text>
<text x="900" y="290" text-anchor="start" font-family="Inter, 'Helvetica Neue', 'Segoe UI', system-ui, Arial, sans-serif" font-size="12.5" font-weight="400" fill="#9CA3AF">shifters, comparators…).</text>
<text x="900" y="310" text-anchor="start" font-family="Inter, 'Helvetica Neue', 'Segoe UI', system-ui, Arial, sans-serif" font-size="12.5" font-weight="400" fill="#9CA3AF">The 4-bit alu_ctrl chooses</text>
<text x="900" y="330" text-anchor="start" font-family="Inter, 'Helvetica Neue', 'Segoe UI', system-ui, Arial, sans-serif" font-size="12.5" font-weight="400" fill="#9CA3AF">which result leaves the MUX.</text>
<text x="900" y="360" text-anchor="start" font-family="Inter, 'Helvetica Neue', 'Segoe UI', system-ui, Arial, sans-serif" font-size="12.5" font-weight="400" fill="#6B7689">zero flag → branch logic.</text>
</svg>