<svg xmlns="http://www.w3.org/2000/svg" viewBox="17 -5 1615 1220" width="1615" height="1220" font-family="SFMono-Regular,Consolas,monospace">
<rect x="17" y="-5" width="1615" height="1220" fill="#0d1117"/>
<g opacity="0.5">
<line x1="0" y1="-5" x2="0" y2="1215" stroke="#161b22" stroke-width="1"/>
<line x1="50" y1="-5" x2="50" y2="1215" stroke="#161b22" stroke-width="1"/>
<line x1="100" y1="-5" x2="100" y2="1215" stroke="#161b22" stroke-width="1"/>
<line x1="150" y1="-5" x2="150" y2="1215" stroke="#161b22" stroke-width="1"/>
<line x1="200" y1="-5" x2="200" y2="1215" stroke="#161b22" stroke-width="1"/>
<line x1="250" y1="-5" x2="250" y2="1215" stroke="#161b22" stroke-width="1"/>
<line x1="300" y1="-5" x2="300" y2="1215" stroke="#161b22" stroke-width="1"/>
<line x1="350" y1="-5" x2="350" y2="1215" stroke="#161b22" stroke-width="1"/>
<line x1="400" y1="-5" x2="400" y2="1215" stroke="#161b22" stroke-width="1"/>
<line x1="450" y1="-5" x2="450" y2="1215" stroke="#161b22" stroke-width="1"/>
<line x1="500" y1="-5" x2="500" y2="1215" stroke="#161b22" stroke-width="1"/>
<line x1="550" y1="-5" x2="550" y2="1215" stroke="#161b22" stroke-width="1"/>
<line x1="600" y1="-5" x2="600" y2="1215" stroke="#161b22" stroke-width="1"/>
<line x1="650" y1="-5" x2="650" y2="1215" stroke="#161b22" stroke-width="1"/>
<line x1="700" y1="-5" x2="700" y2="1215" stroke="#161b22" stroke-width="1"/>
<line x1="750" y1="-5" x2="750" y2="1215" stroke="#161b22" stroke-width="1"/>
<line x1="800" y1="-5" x2="800" y2="1215" stroke="#161b22" stroke-width="1"/>
<line x1="850" y1="-5" x2="850" y2="1215" stroke="#161b22" stroke-width="1"/>
<line x1="900" y1="-5" x2="900" y2="1215" stroke="#161b22" stroke-width="1"/>
<line x1="950" y1="-5" x2="950" y2="1215" stroke="#161b22" stroke-width="1"/>
<line x1="1000" y1="-5" x2="1000" y2="1215" stroke="#161b22" stroke-width="1"/>
<line x1="1050" y1="-5" x2="1050" y2="1215" stroke="#161b22" stroke-width="1"/>
<line x1="1100" y1="-5" x2="1100" y2="1215" stroke="#161b22" stroke-width="1"/>
<line x1="1150" y1="-5" x2="1150" y2="1215" stroke="#161b22" stroke-width="1"/>
<line x1="1200" y1="-5" x2="1200" y2="1215" stroke="#161b22" stroke-width="1"/>
<line x1="1250" y1="-5" x2="1250" y2="1215" stroke="#161b22" stroke-width="1"/>
<line x1="1300" y1="-5" x2="1300" y2="1215" stroke="#161b22" stroke-width="1"/>
<line x1="1350" y1="-5" x2="1350" y2="1215" stroke="#161b22" stroke-width="1"/>
<line x1="1400" y1="-5" x2="1400" y2="1215" stroke="#161b22" stroke-width="1"/>
<line x1="1450" y1="-5" x2="1450" y2="1215" stroke="#161b22" stroke-width="1"/>
<line x1="1500" y1="-5" x2="1500" y2="1215" stroke="#161b22" stroke-width="1"/>
<line x1="1550" y1="-5" x2="1550" y2="1215" stroke="#161b22" stroke-width="1"/>
<line x1="1600" y1="-5" x2="1600" y2="1215" stroke="#161b22" stroke-width="1"/>
<line x1="17" y1="-50" x2="1632" y2="-50" stroke="#161b22" stroke-width="1"/>
<line x1="17" y1="0" x2="1632" y2="0" stroke="#161b22" stroke-width="1"/>
<line x1="17" y1="50" x2="1632" y2="50" stroke="#161b22" stroke-width="1"/>
<line x1="17" y1="100" x2="1632" y2="100" stroke="#161b22" stroke-width="1"/>
<line x1="17" y1="150" x2="1632" y2="150" stroke="#161b22" stroke-width="1"/>
<line x1="17" y1="200" x2="1632" y2="200" stroke="#161b22" stroke-width="1"/>
<line x1="17" y1="250" x2="1632" y2="250" stroke="#161b22" stroke-width="1"/>
<line x1="17" y1="300" x2="1632" y2="300" stroke="#161b22" stroke-width="1"/>
<line x1="17" y1="350" x2="1632" y2="350" stroke="#161b22" stroke-width="1"/>
<line x1="17" y1="400" x2="1632" y2="400" stroke="#161b22" stroke-width="1"/>
<line x1="17" y1="450" x2="1632" y2="450" stroke="#161b22" stroke-width="1"/>
<line x1="17" y1="500" x2="1632" y2="500" stroke="#161b22" stroke-width="1"/>
<line x1="17" y1="550" x2="1632" y2="550" stroke="#161b22" stroke-width="1"/>
<line x1="17" y1="600" x2="1632" y2="600" stroke="#161b22" stroke-width="1"/>
<line x1="17" y1="650" x2="1632" y2="650" stroke="#161b22" stroke-width="1"/>
<line x1="17" y1="700" x2="1632" y2="700" stroke="#161b22" stroke-width="1"/>
<line x1="17" y1="750" x2="1632" y2="750" stroke="#161b22" stroke-width="1"/>
<line x1="17" y1="800" x2="1632" y2="800" stroke="#161b22" stroke-width="1"/>
<line x1="17" y1="850" x2="1632" y2="850" stroke="#161b22" stroke-width="1"/>
<line x1="17" y1="900" x2="1632" y2="900" stroke="#161b22" stroke-width="1"/>
<line x1="17" y1="950" x2="1632" y2="950" stroke="#161b22" stroke-width="1"/>
<line x1="17" y1="1000" x2="1632" y2="1000" stroke="#161b22" stroke-width="1"/>
<line x1="17" y1="1050" x2="1632" y2="1050" stroke="#161b22" stroke-width="1"/>
<line x1="17" y1="1100" x2="1632" y2="1100" stroke="#161b22" stroke-width="1"/>
<line x1="17" y1="1150" x2="1632" y2="1150" stroke="#161b22" stroke-width="1"/>
<line x1="17" y1="1200" x2="1632" y2="1200" stroke="#161b22" stroke-width="1"/>
</g>
<text x="39" y="29" fill="#e6edf3" font-size="26" font-weight="700">ALU</text>
<text x="39" y="51" fill="#8b949e" font-size="13">RV32I CPU &#183; Logisim-Evolution schematic</text>
<g stroke-linecap="round">
<line x1="100" y1="110" x2="100" y2="150" stroke="#58a6ff" stroke-width="2.4" opacity="0.85"/>
<line x1="100" y1="150" x2="170" y2="150" stroke="#58a6ff" stroke-width="2.4" opacity="0.85"/>
<line x1="1270" y1="410" x2="1350" y2="410" stroke="#58a6ff" stroke-width="2.4" opacity="0.85"/>
<line x1="1280" y1="100" x2="1450" y2="100" stroke="#58a6ff" stroke-width="2.4" opacity="0.85"/>
<line x1="1280" y1="130" x2="1440" y2="130" stroke="#58a6ff" stroke-width="2.4" opacity="0.85"/>
<line x1="1280" y1="160" x2="1430" y2="160" stroke="#58a6ff" stroke-width="2.4" opacity="0.85"/>
<line x1="1280" y1="190" x2="1420" y2="190" stroke="#58a6ff" stroke-width="2.4" opacity="0.85"/>
<line x1="1280" y1="220" x2="1290" y2="220" stroke="#58a6ff" stroke-width="2.4" opacity="0.85"/>
<line x1="1280" y1="250" x2="1300" y2="250" stroke="#58a6ff" stroke-width="2.4" opacity="0.85"/>
<line x1="1280" y1="280" x2="1310" y2="280" stroke="#58a6ff" stroke-width="2.4" opacity="0.85"/>
<line x1="1280" y1="310" x2="1320" y2="310" stroke="#58a6ff" stroke-width="2.4" opacity="0.85"/>
<line x1="1280" y1="340" x2="1330" y2="340" stroke="#58a6ff" stroke-width="2.4" opacity="0.85"/>
<line x1="1280" y1="370" x2="1340" y2="370" stroke="#58a6ff" stroke-width="2.4" opacity="0.85"/>
<line x1="1280" y1="70" x2="1460" y2="70" stroke="#58a6ff" stroke-width="2.4" opacity="0.85"/>
<line x1="1290" y1="210" x2="1290" y2="220" stroke="#58a6ff" stroke-width="2.4" opacity="0.85"/>
<line x1="1290" y1="210" x2="1470" y2="210" stroke="#58a6ff" stroke-width="2.4" opacity="0.85"/>
<line x1="1300" y1="220" x2="1300" y2="250" stroke="#58a6ff" stroke-width="2.4" opacity="0.85"/>
<line x1="1300" y1="220" x2="1470" y2="220" stroke="#58a6ff" stroke-width="2.4" opacity="0.85"/>
<line x1="1310" y1="230" x2="1310" y2="280" stroke="#58a6ff" stroke-width="2.4" opacity="0.85"/>
<line x1="1310" y1="230" x2="1470" y2="230" stroke="#58a6ff" stroke-width="2.4" opacity="0.85"/>
<line x1="1320" y1="240" x2="1320" y2="310" stroke="#58a6ff" stroke-width="2.4" opacity="0.85"/>
<line x1="1320" y1="240" x2="1470" y2="240" stroke="#58a6ff" stroke-width="2.4" opacity="0.85"/>
<line x1="1330" y1="250" x2="1330" y2="340" stroke="#58a6ff" stroke-width="2.4" opacity="0.85"/>
<line x1="1330" y1="250" x2="1470" y2="250" stroke="#58a6ff" stroke-width="2.4" opacity="0.85"/>
<line x1="1340" y1="260" x2="1340" y2="370" stroke="#58a6ff" stroke-width="2.4" opacity="0.85"/>
<line x1="1340" y1="260" x2="1470" y2="260" stroke="#58a6ff" stroke-width="2.4" opacity="0.85"/>
<line x1="1350" y1="270" x2="1350" y2="280" stroke="#58a6ff" stroke-width="2.4" opacity="0.85"/>
<line x1="1350" y1="270" x2="1470" y2="270" stroke="#58a6ff" stroke-width="2.4" opacity="0.85"/>
<line x1="1350" y1="280" x2="1350" y2="290" stroke="#58a6ff" stroke-width="2.4" opacity="0.85"/>
<line x1="1350" y1="280" x2="1470" y2="280" stroke="#58a6ff" stroke-width="2.4" opacity="0.85"/>
<line x1="1350" y1="290" x2="1350" y2="300" stroke="#58a6ff" stroke-width="2.4" opacity="0.85"/>
<line x1="1350" y1="290" x2="1470" y2="290" stroke="#58a6ff" stroke-width="2.4" opacity="0.85"/>
<line x1="1350" y1="300" x2="1350" y2="310" stroke="#58a6ff" stroke-width="2.4" opacity="0.85"/>
<line x1="1350" y1="300" x2="1470" y2="300" stroke="#58a6ff" stroke-width="2.4" opacity="0.85"/>
<line x1="1350" y1="310" x2="1350" y2="410" stroke="#58a6ff" stroke-width="2.4" opacity="0.85"/>
<line x1="1350" y1="310" x2="1470" y2="310" stroke="#58a6ff" stroke-width="2.4" opacity="0.85"/>
<line x1="1420" y1="190" x2="1420" y2="200" stroke="#58a6ff" stroke-width="2.4" opacity="0.85"/>
<line x1="1420" y1="200" x2="1470" y2="200" stroke="#58a6ff" stroke-width="2.4" opacity="0.85"/>
<line x1="1430" y1="160" x2="1430" y2="190" stroke="#58a6ff" stroke-width="2.4" opacity="0.85"/>
<line x1="1430" y1="190" x2="1470" y2="190" stroke="#58a6ff" stroke-width="2.4" opacity="0.85"/>
<line x1="1440" y1="130" x2="1440" y2="180" stroke="#58a6ff" stroke-width="2.4" opacity="0.85"/>
<line x1="1440" y1="180" x2="1470" y2="180" stroke="#58a6ff" stroke-width="2.4" opacity="0.85"/>
<line x1="1450" y1="100" x2="1450" y2="170" stroke="#58a6ff" stroke-width="2.4" opacity="0.85"/>
<line x1="1450" y1="170" x2="1470" y2="170" stroke="#58a6ff" stroke-width="2.4" opacity="0.85"/>
<line x1="1460" y1="160" x2="1470" y2="160" stroke="#58a6ff" stroke-width="2.4" opacity="0.85"/>
<line x1="1460" y1="70" x2="1460" y2="160" stroke="#58a6ff" stroke-width="2.4" opacity="0.85"/>
<line x1="1470" y1="450" x2="1490" y2="450" stroke="#58a6ff" stroke-width="2.4" opacity="0.85"/>
<line x1="1490" y1="320" x2="1490" y2="450" stroke="#58a6ff" stroke-width="2.4" opacity="0.85"/>
<line x1="1510" y1="240" x2="1540" y2="240" stroke="#58a6ff" stroke-width="2.4" opacity="0.85"/>
<line x1="170" y1="150" x2="170" y2="300" stroke="#58a6ff" stroke-width="2.4" opacity="0.85"/>
<line x1="170" y1="150" x2="280" y2="150" stroke="#58a6ff" stroke-width="2.4" opacity="0.85"/>
<line x1="200" y1="110" x2="200" y2="130" stroke="#58a6ff" stroke-width="2.4" opacity="0.85"/>
<line x1="200" y1="130" x2="290" y2="130" stroke="#58a6ff" stroke-width="2.4" opacity="0.85"/>
<line x1="280" y1="150" x2="280" y2="820" stroke="#58a6ff" stroke-width="2.4" opacity="0.85"/>
<line x1="280" y1="150" x2="360" y2="150" stroke="#58a6ff" stroke-width="2.4" opacity="0.85"/>
<line x1="280" y1="820" x2="630" y2="820" stroke="#58a6ff" stroke-width="2.4" opacity="0.85"/>
<line x1="290" y1="130" x2="290" y2="800" stroke="#58a6ff" stroke-width="2.4" opacity="0.85"/>
<line x1="290" y1="130" x2="310" y2="130" stroke="#58a6ff" stroke-width="2.4" opacity="0.85"/>
<line x1="290" y1="800" x2="640" y2="800" stroke="#58a6ff" stroke-width="2.4" opacity="0.85"/>
<line x1="310" y1="130" x2="310" y2="730" stroke="#58a6ff" stroke-width="2.4" opacity="0.85"/>
<line x1="310" y1="130" x2="330" y2="130" stroke="#58a6ff" stroke-width="2.4" opacity="0.85"/>
<line x1="310" y1="730" x2="780" y2="730" stroke="#58a6ff" stroke-width="2.4" opacity="0.85"/>
<line x1="330" y1="130" x2="330" y2="660" stroke="#58a6ff" stroke-width="2.4" opacity="0.85"/>
<line x1="330" y1="130" x2="350" y2="130" stroke="#58a6ff" stroke-width="2.4" opacity="0.85"/>
<line x1="330" y1="660" x2="780" y2="660" stroke="#58a6ff" stroke-width="2.4" opacity="0.85"/>
<line x1="350" y1="130" x2="350" y2="580" stroke="#58a6ff" stroke-width="2.4" opacity="0.85"/>
<line x1="350" y1="130" x2="410" y2="130" stroke="#58a6ff" stroke-width="2.4" opacity="0.85"/>
<line x1="350" y1="580" x2="780" y2="580" stroke="#58a6ff" stroke-width="2.4" opacity="0.85"/>
<line x1="360" y1="150" x2="360" y2="540" stroke="#58a6ff" stroke-width="2.4" opacity="0.85"/>
<line x1="360" y1="150" x2="400" y2="150" stroke="#58a6ff" stroke-width="2.4" opacity="0.85"/>
<line x1="360" y1="540" x2="810" y2="540" stroke="#58a6ff" stroke-width="2.4" opacity="0.85"/>
<line x1="380" y1="1060" x2="440" y2="1060" stroke="#58a6ff" stroke-width="2.4" opacity="0.85"/>
<line x1="400" y1="1130" x2="420" y2="1130" stroke="#58a6ff" stroke-width="2.4" opacity="0.85"/>
<line x1="400" y1="150" x2="400" y2="480" stroke="#58a6ff" stroke-width="2.4" opacity="0.85"/>
<line x1="400" y1="150" x2="450" y2="150" stroke="#58a6ff" stroke-width="2.4" opacity="0.85"/>
<line x1="400" y1="480" x2="760" y2="480" stroke="#58a6ff" stroke-width="2.4" opacity="0.85"/>
<line x1="410" y1="130" x2="410" y2="440" stroke="#58a6ff" stroke-width="2.4" opacity="0.85"/>
<line x1="410" y1="130" x2="460" y2="130" stroke="#58a6ff" stroke-width="2.4" opacity="0.85"/>
<line x1="410" y1="440" x2="760" y2="440" stroke="#58a6ff" stroke-width="2.4" opacity="0.85"/>
<line x1="440" y1="1030" x2="520" y2="1030" stroke="#58a6ff" stroke-width="2.4" opacity="0.85"/>
<line x1="440" y1="1050" x2="440" y2="1060" stroke="#58a6ff" stroke-width="2.4" opacity="0.85"/>
<line x1="440" y1="1050" x2="520" y2="1050" stroke="#58a6ff" stroke-width="2.4" opacity="0.85"/>
<line x1="450" y1="150" x2="450" y2="390" stroke="#58a6ff" stroke-width="2.4" opacity="0.85"/>
<line x1="450" y1="150" x2="490" y2="150" stroke="#58a6ff" stroke-width="2.4" opacity="0.85"/>
<line x1="450" y1="390" x2="770" y2="390" stroke="#58a6ff" stroke-width="2.4" opacity="0.85"/>
<line x1="460" y1="130" x2="460" y2="350" stroke="#58a6ff" stroke-width="2.4" opacity="0.85"/>
<line x1="460" y1="130" x2="500" y2="130" stroke="#58a6ff" stroke-width="2.4" opacity="0.85"/>
<line x1="460" y1="350" x2="770" y2="350" stroke="#58a6ff" stroke-width="2.4" opacity="0.85"/>
<line x1="490" y1="150" x2="490" y2="210" stroke="#58a6ff" stroke-width="2.4" opacity="0.85"/>
<line x1="490" y1="150" x2="510" y2="150" stroke="#58a6ff" stroke-width="2.4" opacity="0.85"/>
<line x1="490" y1="210" x2="770" y2="210" stroke="#58a6ff" stroke-width="2.4" opacity="0.85"/>
<line x1="500" y1="130" x2="500" y2="190" stroke="#58a6ff" stroke-width="2.4" opacity="0.85"/>
<line x1="500" y1="130" x2="520" y2="130" stroke="#58a6ff" stroke-width="2.4" opacity="0.85"/>
<line x1="500" y1="190" x2="770" y2="190" stroke="#58a6ff" stroke-width="2.4" opacity="0.85"/>
<line x1="510" y1="150" x2="510" y2="300" stroke="#58a6ff" stroke-width="2.4" opacity="0.85"/>
<line x1="510" y1="150" x2="770" y2="150" stroke="#58a6ff" stroke-width="2.4" opacity="0.85"/>
<line x1="510" y1="300" x2="770" y2="300" stroke="#58a6ff" stroke-width="2.4" opacity="0.85"/>
<line x1="520" y1="130" x2="520" y2="260" stroke="#58a6ff" stroke-width="2.4" opacity="0.85"/>
<line x1="520" y1="130" x2="770" y2="130" stroke="#58a6ff" stroke-width="2.4" opacity="0.85"/>
<line x1="520" y1="260" x2="770" y2="260" stroke="#58a6ff" stroke-width="2.4" opacity="0.85"/>
<line x1="560" y1="1040" x2="640" y2="1040" stroke="#58a6ff" stroke-width="2.4" opacity="0.85"/>
<line x1="630" y1="820" x2="630" y2="910" stroke="#58a6ff" stroke-width="2.4" opacity="0.85"/>
<line x1="630" y1="820" x2="670" y2="820" stroke="#58a6ff" stroke-width="2.4" opacity="0.85"/>
<line x1="630" y1="910" x2="670" y2="910" stroke="#58a6ff" stroke-width="2.4" opacity="0.85"/>
<line x1="640" y1="800" x2="640" y2="890" stroke="#58a6ff" stroke-width="2.4" opacity="0.85"/>
<line x1="640" y1="800" x2="670" y2="800" stroke="#58a6ff" stroke-width="2.4" opacity="0.85"/>
<line x1="640" y1="890" x2="670" y2="890" stroke="#58a6ff" stroke-width="2.4" opacity="0.85"/>
<line x1="710" y1="820" x2="730" y2="820" stroke="#58a6ff" stroke-width="2.4" opacity="0.85"/>
<line x1="710" y1="910" x2="720" y2="910" stroke="#58a6ff" stroke-width="2.4" opacity="0.85"/>
<line x1="720" y1="900" x2="720" y2="910" stroke="#58a6ff" stroke-width="2.4" opacity="0.85"/>
<line x1="720" y1="900" x2="780" y2="900" stroke="#58a6ff" stroke-width="2.4" opacity="0.85"/>
<line x1="730" y1="810" x2="730" y2="820" stroke="#58a6ff" stroke-width="2.4" opacity="0.85"/>
<line x1="730" y1="810" x2="780" y2="810" stroke="#58a6ff" stroke-width="2.4" opacity="0.85"/>
<line x1="760" y1="600" x2="780" y2="600" stroke="#58a6ff" stroke-width="2.4" opacity="0.85"/>
<line x1="770" y1="680" x2="780" y2="680" stroke="#58a6ff" stroke-width="2.4" opacity="0.85"/>
<line x1="770" y1="750" x2="780" y2="750" stroke="#58a6ff" stroke-width="2.4" opacity="0.85"/>
<line x1="810" y1="140" x2="850" y2="140" stroke="#58a6ff" stroke-width="2.4" opacity="0.85"/>
<line x1="810" y1="200" x2="850" y2="200" stroke="#58a6ff" stroke-width="2.4" opacity="0.85"/>
<line x1="820" y1="280" x2="850" y2="280" stroke="#58a6ff" stroke-width="2.4" opacity="0.85"/>
<line x1="820" y1="370" x2="850" y2="370" stroke="#58a6ff" stroke-width="2.4" opacity="0.85"/>
<line x1="820" y1="460" x2="850" y2="460" stroke="#58a6ff" stroke-width="2.4" opacity="0.85"/>
<line x1="820" y1="590" x2="850" y2="590" stroke="#58a6ff" stroke-width="2.4" opacity="0.85"/>
<line x1="820" y1="670" x2="850" y2="670" stroke="#58a6ff" stroke-width="2.4" opacity="0.85"/>
<line x1="820" y1="740" x2="850" y2="740" stroke="#58a6ff" stroke-width="2.4" opacity="0.85"/>
<line x1="820" y1="810" x2="850" y2="810" stroke="#58a6ff" stroke-width="2.4" opacity="0.85"/>
<line x1="820" y1="900" x2="850" y2="900" stroke="#58a6ff" stroke-width="2.4" opacity="0.85"/>
<line x1="830" y1="520" x2="850" y2="520" stroke="#58a6ff" stroke-width="2.4" opacity="0.85"/>
</g>
<circle cx="170" cy="150" r="3.2" fill="#58a6ff"/>
<circle cx="1350" cy="280" r="3.2" fill="#58a6ff"/>
<circle cx="1350" cy="290" r="3.2" fill="#58a6ff"/>
<circle cx="1350" cy="300" r="3.2" fill="#58a6ff"/>
<circle cx="1350" cy="310" r="3.2" fill="#58a6ff"/>
<circle cx="280" cy="150" r="3.2" fill="#58a6ff"/>
<circle cx="290" cy="130" r="3.2" fill="#58a6ff"/>
<circle cx="360" cy="150" r="3.2" fill="#58a6ff"/>
<circle cx="630" cy="820" r="3.2" fill="#58a6ff"/>
<circle cx="310" cy="130" r="3.2" fill="#58a6ff"/>
<circle cx="640" cy="800" r="3.2" fill="#58a6ff"/>
<circle cx="330" cy="130" r="3.2" fill="#58a6ff"/>
<circle cx="350" cy="130" r="3.2" fill="#58a6ff"/>
<circle cx="410" cy="130" r="3.2" fill="#58a6ff"/>
<circle cx="400" cy="150" r="3.2" fill="#58a6ff"/>
<circle cx="450" cy="150" r="3.2" fill="#58a6ff"/>
<circle cx="460" cy="130" r="3.2" fill="#58a6ff"/>
<circle cx="490" cy="150" r="3.2" fill="#58a6ff"/>
<circle cx="500" cy="130" r="3.2" fill="#58a6ff"/>
<circle cx="510" cy="150" r="3.2" fill="#58a6ff"/>
<circle cx="520" cy="130" r="3.2" fill="#58a6ff"/>
<rect x="77" y="85" width="46" height="50" rx="6" fill="#238636" stroke="#56d364" stroke-width="2"/>
<text x="100" y="115" fill="#fff" font-size="13" font-weight="600" text-anchor="middle">b</text>
<rect x="1238" y="395" width="64" height="30" rx="6" fill="#30363d" stroke="#8b949e" stroke-width="2"/>
<text x="1270" y="415" fill="#fff" font-size="12" font-weight="500" text-anchor="middle">const</text>
<rect x="1233" y="87" width="94" height="26" rx="13" fill="#21262d" stroke="#444c56" stroke-width="1.2"/>
<text x="1280" y="104" fill="#7ee787" font-size="12" text-anchor="middle">sub_result</text>
<rect x="1233" y="117" width="94" height="26" rx="13" fill="#21262d" stroke="#444c56" stroke-width="1.2"/>
<text x="1280" y="134" fill="#7ee787" font-size="12" text-anchor="middle">and_result</text>
<rect x="1237" y="147" width="86" height="26" rx="13" fill="#21262d" stroke="#444c56" stroke-width="1.2"/>
<text x="1280" y="164" fill="#7ee787" font-size="12" text-anchor="middle">or_result</text>
<rect x="1233" y="177" width="94" height="26" rx="13" fill="#21262d" stroke="#444c56" stroke-width="1.2"/>
<text x="1280" y="194" fill="#7ee787" font-size="12" text-anchor="middle">xor_result</text>
<rect x="1233" y="207" width="94" height="26" rx="13" fill="#21262d" stroke="#444c56" stroke-width="1.2"/>
<text x="1280" y="224" fill="#7ee787" font-size="12" text-anchor="middle">sll_result</text>
<rect x="1233" y="237" width="94" height="26" rx="13" fill="#21262d" stroke="#444c56" stroke-width="1.2"/>
<text x="1280" y="254" fill="#7ee787" font-size="12" text-anchor="middle">srl_result</text>
<rect x="1233" y="267" width="94" height="26" rx="13" fill="#21262d" stroke="#444c56" stroke-width="1.2"/>
<text x="1280" y="284" fill="#7ee787" font-size="12" text-anchor="middle">sra_result</text>
<rect x="1233" y="297" width="94" height="26" rx="13" fill="#21262d" stroke="#444c56" stroke-width="1.2"/>
<text x="1280" y="314" fill="#7ee787" font-size="12" text-anchor="middle">slt_result</text>
<rect x="1229" y="327" width="102" height="26" rx="13" fill="#21262d" stroke="#444c56" stroke-width="1.2"/>
<text x="1280" y="344" fill="#7ee787" font-size="12" text-anchor="middle">sltu_result</text>
<rect x="1213" y="357" width="134" height="26" rx="13" fill="#21262d" stroke="#444c56" stroke-width="1.2"/>
<text x="1280" y="374" fill="#7ee787" font-size="12" text-anchor="middle">lui_pass_result</text>
<rect x="1233" y="57" width="94" height="26" rx="13" fill="#21262d" stroke="#444c56" stroke-width="1.2"/>
<text x="1280" y="74" fill="#7ee787" font-size="12" text-anchor="middle">add_result</text>
<rect x="1426" y="425" width="88" height="50" rx="6" fill="#238636" stroke="#56d364" stroke-width="2"/>
<text x="1470" y="455" fill="#fff" font-size="13" font-weight="600" text-anchor="middle">alu_ctrl</text>
<rect x="1473" y="227" width="134" height="26" rx="13" fill="#21262d" stroke="#444c56" stroke-width="1.2"/>
<text x="1540" y="244" fill="#7ee787" font-size="12" text-anchor="middle">result_internal</text>
<rect x="103" y="287" width="134" height="26" rx="13" fill="#21262d" stroke="#444c56" stroke-width="1.2"/>
<text x="170" y="304" fill="#7ee787" font-size="12" text-anchor="middle">lui_pass_result</text>
<rect x="177" y="85" width="46" height="50" rx="6" fill="#238636" stroke="#56d364" stroke-width="2"/>
<text x="200" y="115" fill="#fff" font-size="13" font-weight="600" text-anchor="middle">a</text>
<rect x="348" y="1045" width="64" height="30" rx="6" fill="#30363d" stroke="#8b949e" stroke-width="2"/>
<text x="380" y="1065" fill="#fff" font-size="12" font-weight="500" text-anchor="middle">const</text>
<rect x="333" y="1117" width="134" height="26" rx="13" fill="#21262d" stroke="#444c56" stroke-width="1.2"/>
<text x="400" y="1134" fill="#7ee787" font-size="12" text-anchor="middle">result_internal</text>
<rect x="385" y="1105" width="70" height="50" rx="6" fill="#238636" stroke="#56d364" stroke-width="2"/>
<text x="420" y="1135" fill="#fff" font-size="13" font-weight="600" text-anchor="middle">result</text>
<rect x="373" y="1017" width="134" height="26" rx="13" fill="#21262d" stroke="#444c56" stroke-width="1.2"/>
<text x="440" y="1034" fill="#7ee787" font-size="12" text-anchor="middle">result_internal</text>
<rect x="614" y="1015" width="52" height="50" rx="6" fill="#238636" stroke="#56d364" stroke-width="2"/>
<text x="640" y="1045" fill="#fff" font-size="13" font-weight="600" text-anchor="middle">zero</text>
<rect x="733" y="587" width="54" height="26" rx="13" fill="#21262d" stroke="#444c56" stroke-width="1.2"/>
<text x="760" y="604" fill="#7ee787" font-size="12" text-anchor="middle">shamt</text>
<rect x="743" y="667" width="54" height="26" rx="13" fill="#21262d" stroke="#444c56" stroke-width="1.2"/>
<text x="770" y="684" fill="#7ee787" font-size="12" text-anchor="middle">shamt</text>
<rect x="743" y="737" width="54" height="26" rx="13" fill="#21262d" stroke="#444c56" stroke-width="1.2"/>
<text x="770" y="754" fill="#7ee787" font-size="12" text-anchor="middle">shamt</text>
<rect x="797" y="505" width="26" height="70" rx="6" fill="#30363d" stroke="#8b949e" stroke-width="2"/>
<text x="810" y="545" fill="#fff" font-size="12" font-weight="500" text-anchor="middle">Splitter</text>
<rect x="788" y="795" width="64" height="30" rx="6" fill="#30363d" stroke="#8b949e" stroke-width="2"/>
<text x="820" y="815" fill="#fff" font-size="12" font-weight="500" text-anchor="middle">EXT</text>
<rect x="788" y="885" width="64" height="30" rx="6" fill="#30363d" stroke="#8b949e" stroke-width="2"/>
<text x="820" y="905" fill="#fff" font-size="12" font-weight="500" text-anchor="middle">EXT</text>
<rect x="803" y="127" width="94" height="26" rx="13" fill="#21262d" stroke="#444c56" stroke-width="1.2"/>
<text x="850" y="144" fill="#7ee787" font-size="12" text-anchor="middle">add_result</text>
<rect x="803" y="187" width="94" height="26" rx="13" fill="#21262d" stroke="#444c56" stroke-width="1.2"/>
<text x="850" y="204" fill="#7ee787" font-size="12" text-anchor="middle">sub_result</text>
<rect x="803" y="267" width="94" height="26" rx="13" fill="#21262d" stroke="#444c56" stroke-width="1.2"/>
<text x="850" y="284" fill="#7ee787" font-size="12" text-anchor="middle">and_result</text>
<rect x="807" y="357" width="86" height="26" rx="13" fill="#21262d" stroke="#444c56" stroke-width="1.2"/>
<text x="850" y="374" fill="#7ee787" font-size="12" text-anchor="middle">or_result</text>
<rect x="803" y="447" width="94" height="26" rx="13" fill="#21262d" stroke="#444c56" stroke-width="1.2"/>
<text x="850" y="464" fill="#7ee787" font-size="12" text-anchor="middle">xor_result</text>
<rect x="823" y="507" width="54" height="26" rx="13" fill="#21262d" stroke="#444c56" stroke-width="1.2"/>
<text x="850" y="524" fill="#7ee787" font-size="12" text-anchor="middle">shamt</text>
<rect x="803" y="577" width="94" height="26" rx="13" fill="#21262d" stroke="#444c56" stroke-width="1.2"/>
<text x="850" y="594" fill="#7ee787" font-size="12" text-anchor="middle">sll_result</text>
<rect x="803" y="657" width="94" height="26" rx="13" fill="#21262d" stroke="#444c56" stroke-width="1.2"/>
<text x="850" y="674" fill="#7ee787" font-size="12" text-anchor="middle">slr_result</text>
<rect x="803" y="727" width="94" height="26" rx="13" fill="#21262d" stroke="#444c56" stroke-width="1.2"/>
<text x="850" y="744" fill="#7ee787" font-size="12" text-anchor="middle">sra_result</text>
<rect x="803" y="797" width="94" height="26" rx="13" fill="#21262d" stroke="#444c56" stroke-width="1.2"/>
<text x="850" y="814" fill="#7ee787" font-size="12" text-anchor="middle">slt_result</text>
<rect x="799" y="887" width="102" height="26" rx="13" fill="#21262d" stroke="#444c56" stroke-width="1.2"/>
<text x="850" y="904" fill="#7ee787" font-size="12" text-anchor="middle">sltu_result</text>
<rect x="790" y="258" width="60" height="44" rx="6" fill="#6e7681" stroke="#b1bac4" stroke-width="2"/>
<text x="820" y="285" fill="#fff" font-size="12" font-weight="500" text-anchor="middle">AND</text>
<rect x="790" y="348" width="60" height="44" rx="6" fill="#6e7681" stroke="#b1bac4" stroke-width="2"/>
<text x="820" y="375" fill="#fff" font-size="12" font-weight="500" text-anchor="middle">OR</text>
<rect x="790" y="438" width="60" height="44" rx="6" fill="#6e7681" stroke="#b1bac4" stroke-width="2"/>
<text x="820" y="465" fill="#fff" font-size="12" font-weight="500" text-anchor="middle">XOR</text>
<rect x="1471" y="212" width="78" height="56" rx="6" fill="#1a7f37" stroke="#56d364" stroke-width="2"/>
<text x="1510" y="245" fill="#fff" font-size="12" font-weight="500" text-anchor="middle">MUX</text>
<rect x="521" y="1012" width="78" height="56" rx="6" fill="#bb8009" stroke="#f0c674" stroke-width="2"/>
<text x="560" y="1045" fill="#fff" font-size="12" font-weight="500" text-anchor="middle">CMP</text>
<rect x="671" y="782" width="78" height="56" rx="6" fill="#bb8009" stroke="#f0c674" stroke-width="2"/>
<text x="710" y="815" fill="#fff" font-size="12" font-weight="500" text-anchor="middle">CMP</text>
<rect x="671" y="872" width="78" height="56" rx="6" fill="#bb8009" stroke="#f0c674" stroke-width="2"/>
<text x="710" y="905" fill="#fff" font-size="12" font-weight="500" text-anchor="middle">CMP</text>
<rect x="771" y="112" width="78" height="56" rx="6" fill="#bb8009" stroke="#f0c674" stroke-width="2"/>
<text x="810" y="145" fill="#fff" font-size="12" font-weight="500" text-anchor="middle">Adder</text>
<rect x="771" y="172" width="78" height="56" rx="6" fill="#bb8009" stroke="#f0c674" stroke-width="2"/>
<text x="810" y="205" fill="#fff" font-size="12" font-weight="500" text-anchor="middle">SUB</text>
<rect x="781" y="562" width="78" height="56" rx="6" fill="#bb8009" stroke="#f0c674" stroke-width="2"/>
<text x="820" y="595" fill="#fff" font-size="12" font-weight="500" text-anchor="middle">Shifter</text>
<rect x="781" y="642" width="78" height="56" rx="6" fill="#bb8009" stroke="#f0c674" stroke-width="2"/>
<text x="820" y="675" fill="#fff" font-size="12" font-weight="500" text-anchor="middle">Shifter</text>
<rect x="781" y="712" width="78" height="56" rx="6" fill="#bb8009" stroke="#f0c674" stroke-width="2"/>
<text x="820" y="745" fill="#fff" font-size="12" font-weight="500" text-anchor="middle">Shifter</text>
</svg>