<svg xmlns="http://www.w3.org/2000/svg" viewBox="0 0 1120 560" width="1120" height="560" font-family="Inter, 'Helvetica Neue', 'Segoe UI', system-ui, Arial, sans-serif">
<defs>
<filter id="soft" x="-30%" y="-30%" width="160%" height="160%"><feDropShadow dx="0" dy="2" stdDeviation="4" flood-color="#000000" flood-opacity="0.45"/></filter>
<marker id="ar-data" markerWidth="10" markerHeight="10" refX="7.5" refY="4" orient="auto" markerUnits="userSpaceOnUse"><path d="M0,0 L8,4 L0,8 Z" fill="#7C8BA1"/></marker>
<marker id="ar-ctrl" markerWidth="10" markerHeight="10" refX="7.5" refY="4" orient="auto" markerUnits="userSpaceOnUse"><path d="M0,0 L8,4 L0,8 Z" fill="#F97316"/></marker>
<pattern id="grid" width="40" height="40" patternUnits="userSpaceOnUse"><path d="M40 0 L0 0 0 40" fill="none" stroke="#1B2740" stroke-width="1"/></pattern>
<linearGradient id="bgg" x1="0" y1="0" x2="0.6" y2="1"><stop offset="0" stop-color="#070A12"/><stop offset="1" stop-color="#0E1626"/></linearGradient>
</defs>
<rect width="1120" height="560" fill="url(#bgg)"/>
<rect width="1120" height="560" fill="url(#grid)" opacity="0.5"/>
<rect x="40" y="34" width="34" height="6" rx="3" fill="#38BDF8"/>
<text x="40" y="74" font-family="Inter, 'Helvetica Neue', 'Segoe UI', system-ui, Arial, sans-serif" font-size="30" font-weight="750" fill="#F8FAFC">ALU Control</text>
<text x="40" y="100" font-family="Inter, 'Helvetica Neue', 'Segoe UI', system-ui, Arial, sans-serif" font-size="14.5" fill="#9CA3AF">Decodes the exact ALU operation from alu_op, funct3 and funct7</text>
<rect x="60" y="190" width="76" height="30" rx="15" fill="#123524" stroke="#6EE7B7" stroke-width="1.5"/>
<text x="98.0" y="209.5" text-anchor="middle" font-family="ui-monospace, 'SF Mono', Menlo, Consolas, monospace" font-size="12.5" font-weight="600" fill="#DCFCE7">alu_op</text>
<rect x="142.0" y="196" width="20" height="18" rx="9" fill="#111827" stroke="#38BDF8" stroke-width="1" opacity="0.95"/>
<text x="152" y="209" text-anchor="middle" font-family="ui-monospace, 'SF Mono', Menlo, Consolas, monospace" font-size="10.5" fill="#38BDF8">2</text>
<rect x="60" y="250" width="76" height="30" rx="15" fill="#123524" stroke="#6EE7B7" stroke-width="1.5"/>
<text x="98.0" y="269.5" text-anchor="middle" font-family="ui-monospace, 'SF Mono', Menlo, Consolas, monospace" font-size="12.5" font-weight="600" fill="#DCFCE7">funct3</text>
<rect x="142.0" y="256" width="20" height="18" rx="9" fill="#111827" stroke="#38BDF8" stroke-width="1" opacity="0.95"/>
<text x="152" y="269" text-anchor="middle" font-family="ui-monospace, 'SF Mono', Menlo, Consolas, monospace" font-size="10.5" fill="#38BDF8">3</text>
<rect x="60" y="310" width="94" height="30" rx="15" fill="#123524" stroke="#6EE7B7" stroke-width="1.5"/>
<text x="107.0" y="329.5" text-anchor="middle" font-family="ui-monospace, 'SF Mono', Menlo, Consolas, monospace" font-size="12.5" font-weight="600" fill="#DCFCE7">funct7_5</text>
<rect x="160.0" y="316" width="20" height="18" rx="9" fill="#111827" stroke="#38BDF8" stroke-width="1" opacity="0.95"/>
<text x="170" y="329" text-anchor="middle" font-family="ui-monospace, 'SF Mono', Menlo, Consolas, monospace" font-size="10.5" fill="#38BDF8">1</text>
<rect x="280" y="215" width="180" height="110" rx="14" fill="#3B2F0B" stroke="#FFD34D" stroke-width="1.6" filter="url(#soft)"/>
<rect x="280" y="215" width="5" height="110" rx="2.5" fill="#FFD34D"/>
<text x="370.0" y="266.0" text-anchor="middle" font-family="Inter, 'Helvetica Neue', 'Segoe UI', system-ui, Arial, sans-serif" font-size="16" font-weight="650" fill="#FEF3C7">ROM</text>
<text x="370.0" y="286.0" text-anchor="middle" font-family="Inter, 'Helvetica Neue', 'Segoe UI', system-ui, Arial, sans-serif" font-size="11.5" fill="#D9C68A">6-bit addr → 4-bit op</text>
<path d="M 136 205 L 238.0 205.0 Q 250 205 250.0 217.0 L 250.0 258.0 Q 250 270 262.0 270.0 L 280 270.0 " fill="none" stroke="#38BDF8" stroke-width="3.0" stroke-linecap="round" stroke-linejoin="round" marker-end="url(#ar-data)"/>
<path d="M 136 265 L 238.0 265.0 Q 250 265 250.0 267.5 L 250.0 267.5 Q 250 270 262.0 270.0 L 280 270.0 " fill="none" stroke="#38BDF8" stroke-width="3.0" stroke-linecap="round" stroke-linejoin="round" marker-end="url(#ar-data)"/>
<path d="M 154 325 L 238.0 325.0 Q 250 325 250.0 313.0 L 250.0 282.0 Q 250 270 262.0 270.0 L 280 270.0 " fill="none" stroke="#38BDF8" stroke-width="3.0" stroke-linecap="round" stroke-linejoin="round" marker-end="url(#ar-data)"/>
<rect x="560" y="255" width="94" height="30" rx="15" fill="#3B1D0B" stroke="#F97316" stroke-width="1.5"/>
<text x="607.0" y="274.5" text-anchor="middle" font-family="ui-monospace, 'SF Mono', Menlo, Consolas, monospace" font-size="12.5" font-weight="600" fill="#FFEDD5">alu_ctrl</text>
<rect x="660.0" y="261" width="20" height="18" rx="9" fill="#111827" stroke="#38BDF8" stroke-width="1" opacity="0.95"/>
<text x="670" y="274" text-anchor="middle" font-family="ui-monospace, 'SF Mono', Menlo, Consolas, monospace" font-size="10.5" fill="#38BDF8">4</text>
<path d="M 460 270.0 L 560 270 " fill="none" stroke="#38BDF8" stroke-width="3.0" stroke-linecap="round" stroke-linejoin="round" marker-end="url(#ar-data)"/>
<rect x="760" y="150" width="300" height="300" rx="12" fill="#111827" stroke="#64748B" stroke-width="1.5" filter="url(#soft)"/>
<text x="776" y="174" font-family="Inter, 'Helvetica Neue', 'Segoe UI', system-ui, Arial, sans-serif" font-size="13" font-weight="700" fill="#D8DDF5">alu_op decode table</text>
<text x="776" y="196" font-family="ui-monospace, 'SF Mono', Menlo, Consolas, monospace" font-size="12.5" fill="#D8DDF5">alu_op=00  → ADD   (addr calc)</text>
<text x="776" y="215" font-family="ui-monospace, 'SF Mono', Menlo, Consolas, monospace" font-size="12.5" fill="#D8DDF5">alu_op=01  → SUB   (branches)</text>
<text x="776" y="234" font-family="ui-monospace, 'SF Mono', Menlo, Consolas, monospace" font-size="12.5" fill="#D8DDF5">alu_op=10  → decode funct3/7:</text>
<text x="776" y="253" font-family="ui-monospace, 'SF Mono', Menlo, Consolas, monospace" font-size="12.5" fill="#D8DDF5">   000 → ADD/SUB    100 → XOR</text>
<text x="776" y="272" font-family="ui-monospace, 'SF Mono', Menlo, Consolas, monospace" font-size="12.5" fill="#D8DDF5">   001 → SLL        101 → SRL/SRA</text>
<text x="776" y="291" font-family="ui-monospace, 'SF Mono', Menlo, Consolas, monospace" font-size="12.5" fill="#D8DDF5">   010 → SLT        110 → OR</text>
<text x="776" y="310" font-family="ui-monospace, 'SF Mono', Menlo, Consolas, monospace" font-size="12.5" fill="#D8DDF5">   011 → SLTU       111 → AND</text>
<text x="776" y="329" font-family="ui-monospace, 'SF Mono', Menlo, Consolas, monospace" font-size="12.5" fill="#D8DDF5">alu_op=11  → pass B (LUI)</text>
</svg>