<svg xmlns="http://www.w3.org/2000/svg" viewBox="0 0 1180 560" width="1180" height="560" font-family="Inter, 'Helvetica Neue', 'Segoe UI', system-ui, Arial, sans-serif">
<defs>
<filter id="soft" x="-30%" y="-30%" width="160%" height="160%"><feDropShadow dx="0" dy="2" stdDeviation="4" flood-color="#000000" flood-opacity="0.45"/></filter>
<marker id="ar-data" markerWidth="10" markerHeight="10" refX="7.5" refY="4" orient="auto" markerUnits="userSpaceOnUse"><path d="M0,0 L8,4 L0,8 Z" fill="#7C8BA1"/></marker>
<marker id="ar-ctrl" markerWidth="10" markerHeight="10" refX="7.5" refY="4" orient="auto" markerUnits="userSpaceOnUse"><path d="M0,0 L8,4 L0,8 Z" fill="#F97316"/></marker>
<pattern id="grid" width="40" height="40" patternUnits="userSpaceOnUse"><path d="M40 0 L0 0 0 40" fill="none" stroke="#1B2740" stroke-width="1"/></pattern>
<linearGradient id="bgg" x1="0" y1="0" x2="0.6" y2="1"><stop offset="0" stop-color="#070A12"/><stop offset="1" stop-color="#0E1626"/></linearGradient>
</defs>
<rect width="1180" height="560" fill="url(#bgg)"/>
<rect width="1180" height="560" fill="url(#grid)" opacity="0.5"/>
<rect x="40" y="34" width="34" height="6" rx="3" fill="#38BDF8"/>
<text x="40" y="74" font-family="Inter, 'Helvetica Neue', 'Segoe UI', system-ui, Arial, sans-serif" font-size="30" font-weight="750" fill="#F8FAFC">Control Unit</text>
<text x="40" y="100" font-family="Inter, 'Helvetica Neue', 'Segoe UI', system-ui, Arial, sans-serif" font-size="14.5" fill="#9CA3AF">ROM decoder: maps the 7-bit opcode to every control signal</text>
<rect x="60" y="260" width="76" height="30" rx="15" fill="#123524" stroke="#6EE7B7" stroke-width="1.5"/>
<text x="98.0" y="279.5" text-anchor="middle" font-family="ui-monospace, 'SF Mono', Menlo, Consolas, monospace" font-size="12.5" font-weight="600" fill="#DCFCE7">opcode</text>
<rect x="144.0" y="266" width="20" height="18" rx="9" fill="#111827" stroke="#38BDF8" stroke-width="1" opacity="0.95"/>
<text x="154" y="279" text-anchor="middle" font-family="ui-monospace, 'SF Mono', Menlo, Consolas, monospace" font-size="10.5" fill="#38BDF8">7</text>
<rect x="250" y="215" width="170" height="110" rx="14" fill="#3B2F0B" stroke="#FFD34D" stroke-width="1.6" filter="url(#soft)"/>
<rect x="250" y="215" width="5" height="110" rx="2.5" fill="#FFD34D"/>
<text x="335.0" y="266.0" text-anchor="middle" font-family="Inter, 'Helvetica Neue', 'Segoe UI', system-ui, Arial, sans-serif" font-size="16" font-weight="650" fill="#FEF3C7">Decode ROM</text>
<text x="335.0" y="286.0" text-anchor="middle" font-family="Inter, 'Helvetica Neue', 'Segoe UI', system-ui, Arial, sans-serif" font-size="11.5" fill="#D9C68A">opcode → 12 bits</text>
<path d="M 136 275 L 250 270.0 " fill="none" stroke="#38BDF8" stroke-width="3.0" stroke-linecap="round" stroke-linejoin="round" marker-end="url(#ar-data)"/>
<rect x="620" y="150" width="120" height="30" rx="15" fill="#3B1D0B" stroke="#F97316" stroke-width="1.5"/>
<text x="680.0" y="169.5" text-anchor="middle" font-family="ui-monospace, 'SF Mono', Menlo, Consolas, monospace" font-size="12.5" font-weight="600" fill="#FFEDD5">reg_write</text>
<path d="M 420 270.0 L 508.0 270.0 Q 520 270 532.0 270.0 L 548.0 270.0 Q 560 270 560.0 258.0 L 560.0 177.0 Q 560 165 572.0 165.0 L 620 165 " fill="none" stroke="#F97316" stroke-width="2.0" stroke-linecap="round" stroke-linejoin="round" marker-end="url(#ar-ctrl)"/>
<rect x="620" y="178" width="120" height="30" rx="15" fill="#3B1D0B" stroke="#F97316" stroke-width="1.5"/>
<text x="680.0" y="197.5" text-anchor="middle" font-family="ui-monospace, 'SF Mono', Menlo, Consolas, monospace" font-size="12.5" font-weight="600" fill="#FFEDD5">alu_src</text>
<path d="M 420 270.0 L 508.0 270.0 Q 520 270 532.0 270.0 L 548.0 270.0 Q 560 270 560.0 258.0 L 560.0 205.0 Q 560 193 572.0 193.0 L 620 193 " fill="none" stroke="#F97316" stroke-width="2.0" stroke-linecap="round" stroke-linejoin="round" marker-end="url(#ar-ctrl)"/>
<rect x="620" y="206" width="120" height="30" rx="15" fill="#3B1D0B" stroke="#F97316" stroke-width="1.5"/>
<text x="680.0" y="225.5" text-anchor="middle" font-family="ui-monospace, 'SF Mono', Menlo, Consolas, monospace" font-size="12.5" font-weight="600" fill="#FFEDD5">mem_read</text>
<path d="M 420 270.0 L 508.0 270.0 Q 520 270 532.0 270.0 L 548.0 270.0 Q 560 270 560.0 258.0 L 560.0 233.0 Q 560 221 572.0 221.0 L 620 221 " fill="none" stroke="#F97316" stroke-width="2.0" stroke-linecap="round" stroke-linejoin="round" marker-end="url(#ar-ctrl)"/>
<rect x="620" y="234" width="120" height="30" rx="15" fill="#3B1D0B" stroke="#F97316" stroke-width="1.5"/>
<text x="680.0" y="253.5" text-anchor="middle" font-family="ui-monospace, 'SF Mono', Menlo, Consolas, monospace" font-size="12.5" font-weight="600" fill="#FFEDD5">mem_write</text>
<path d="M 420 270.0 L 508.0 270.0 Q 520 270 532.0 270.0 L 548.0 270.0 Q 560 270 560.0 259.5 L 560.0 259.5 Q 560 249 572.0 249.0 L 620 249 " fill="none" stroke="#F97316" stroke-width="2.0" stroke-linecap="round" stroke-linejoin="round" marker-end="url(#ar-ctrl)"/>
<rect x="620" y="262" width="120" height="30" rx="15" fill="#3B1D0B" stroke="#F97316" stroke-width="1.5"/>
<text x="680.0" y="281.5" text-anchor="middle" font-family="ui-monospace, 'SF Mono', Menlo, Consolas, monospace" font-size="12.5" font-weight="600" fill="#FFEDD5">mem_to_reg</text>
<path d="M 420 270.0 L 508.0 270.0 Q 520 270 532.0 270.0 L 548.0 270.0 Q 560 270 560.0 273.5 L 560.0 273.5 Q 560 277 572.0 277.0 L 620 277 " fill="none" stroke="#F97316" stroke-width="2.0" stroke-linecap="round" stroke-linejoin="round" marker-end="url(#ar-ctrl)"/>
<rect x="620" y="290" width="120" height="30" rx="15" fill="#3B1D0B" stroke="#F97316" stroke-width="1.5"/>
<text x="680.0" y="309.5" text-anchor="middle" font-family="ui-monospace, 'SF Mono', Menlo, Consolas, monospace" font-size="12.5" font-weight="600" fill="#FFEDD5">branch</text>
<path d="M 420 270.0 L 508.0 270.0 Q 520 270 532.0 270.0 L 548.0 270.0 Q 560 270 560.0 282.0 L 560.0 293.0 Q 560 305 572.0 305.0 L 620 305 " fill="none" stroke="#F97316" stroke-width="2.0" stroke-linecap="round" stroke-linejoin="round" marker-end="url(#ar-ctrl)"/>
<rect x="620" y="318" width="120" height="30" rx="15" fill="#3B1D0B" stroke="#F97316" stroke-width="1.5"/>
<text x="680.0" y="337.5" text-anchor="middle" font-family="ui-monospace, 'SF Mono', Menlo, Consolas, monospace" font-size="12.5" font-weight="600" fill="#FFEDD5">jump</text>
<path d="M 420 270.0 L 508.0 270.0 Q 520 270 532.0 270.0 L 548.0 270.0 Q 560 270 560.0 282.0 L 560.0 321.0 Q 560 333 572.0 333.0 L 620 333 " fill="none" stroke="#F97316" stroke-width="2.0" stroke-linecap="round" stroke-linejoin="round" marker-end="url(#ar-ctrl)"/>
<rect x="620" y="346" width="120" height="30" rx="15" fill="#3B1D0B" stroke="#F97316" stroke-width="1.5"/>
<text x="680.0" y="365.5" text-anchor="middle" font-family="ui-monospace, 'SF Mono', Menlo, Consolas, monospace" font-size="12.5" font-weight="600" fill="#FFEDD5">alu_op</text>
<path d="M 420 270.0 L 508.0 270.0 Q 520 270 532.0 270.0 L 548.0 270.0 Q 560 270 560.0 282.0 L 560.0 349.0 Q 560 361 572.0 361.0 L 620 361 " fill="none" stroke="#F97316" stroke-width="2.0" stroke-linecap="round" stroke-linejoin="round" marker-end="url(#ar-ctrl)"/>
<rect x="620" y="374" width="120" height="30" rx="15" fill="#3B1D0B" stroke="#F97316" stroke-width="1.5"/>
<text x="680.0" y="393.5" text-anchor="middle" font-family="ui-monospace, 'SF Mono', Menlo, Consolas, monospace" font-size="12.5" font-weight="600" fill="#FFEDD5">imm_sel</text>
<path d="M 420 270.0 L 508.0 270.0 Q 520 270 532.0 270.0 L 548.0 270.0 Q 560 270 560.0 282.0 L 560.0 377.0 Q 560 389 572.0 389.0 L 620 389 " fill="none" stroke="#F97316" stroke-width="2.0" stroke-linecap="round" stroke-linejoin="round" marker-end="url(#ar-ctrl)"/>
<rect x="900" y="150" width="250" height="264" rx="12" fill="#111827" stroke="#64748B" stroke-width="1.5" filter="url(#soft)"/>
<text x="916" y="174" font-family="Inter, 'Helvetica Neue', 'Segoe UI', system-ui, Arial, sans-serif" font-size="13" font-weight="700" fill="#D8DDF5">decoded opcodes</text>
<text x="916" y="196" font-family="ui-monospace, 'SF Mono', Menlo, Consolas, monospace" font-size="12.5" fill="#D8DDF5">0x33  R-type</text>
<text x="916" y="215" font-family="ui-monospace, 'SF Mono', Menlo, Consolas, monospace" font-size="12.5" fill="#D8DDF5">0x13  I-type ALU</text>
<text x="916" y="234" font-family="ui-monospace, 'SF Mono', Menlo, Consolas, monospace" font-size="12.5" fill="#D8DDF5">0x03  Load</text>
<text x="916" y="253" font-family="ui-monospace, 'SF Mono', Menlo, Consolas, monospace" font-size="12.5" fill="#D8DDF5">0x23  Store</text>
<text x="916" y="272" font-family="ui-monospace, 'SF Mono', Menlo, Consolas, monospace" font-size="12.5" fill="#D8DDF5">0x63  Branch</text>
<text x="916" y="291" font-family="ui-monospace, 'SF Mono', Menlo, Consolas, monospace" font-size="12.5" fill="#D8DDF5">0x6F  JAL</text>
<text x="916" y="310" font-family="ui-monospace, 'SF Mono', Menlo, Consolas, monospace" font-size="12.5" fill="#D8DDF5">0x67  JALR</text>
<text x="916" y="329" font-family="ui-monospace, 'SF Mono', Menlo, Consolas, monospace" font-size="12.5" fill="#D8DDF5">0x37  LUI</text>
<text x="916" y="348" font-family="ui-monospace, 'SF Mono', Menlo, Consolas, monospace" font-size="12.5" fill="#D8DDF5">0x17  AUIPC</text>
</svg>