<svg xmlns="http://www.w3.org/2000/svg" viewBox="330 60 2603 1685" width="2603" height="1685" font-family="SFMono-Regular,Consolas,monospace">
<rect x="330" y="60" width="2603" height="1685" fill="#0d1117"/>
<g opacity="0.5">
<line x1="300" y1="60" x2="300" y2="1745" stroke="#161b22" stroke-width="1"/>
<line x1="350" y1="60" x2="350" y2="1745" stroke="#161b22" stroke-width="1"/>
<line x1="400" y1="60" x2="400" y2="1745" stroke="#161b22" stroke-width="1"/>
<line x1="450" y1="60" x2="450" y2="1745" stroke="#161b22" stroke-width="1"/>
<line x1="500" y1="60" x2="500" y2="1745" stroke="#161b22" stroke-width="1"/>
<line x1="550" y1="60" x2="550" y2="1745" stroke="#161b22" stroke-width="1"/>
<line x1="600" y1="60" x2="600" y2="1745" stroke="#161b22" stroke-width="1"/>
<line x1="650" y1="60" x2="650" y2="1745" stroke="#161b22" stroke-width="1"/>
<line x1="700" y1="60" x2="700" y2="1745" stroke="#161b22" stroke-width="1"/>
<line x1="750" y1="60" x2="750" y2="1745" stroke="#161b22" stroke-width="1"/>
<line x1="800" y1="60" x2="800" y2="1745" stroke="#161b22" stroke-width="1"/>
<line x1="850" y1="60" x2="850" y2="1745" stroke="#161b22" stroke-width="1"/>
<line x1="900" y1="60" x2="900" y2="1745" stroke="#161b22" stroke-width="1"/>
<line x1="950" y1="60" x2="950" y2="1745" stroke="#161b22" stroke-width="1"/>
<line x1="1000" y1="60" x2="1000" y2="1745" stroke="#161b22" stroke-width="1"/>
<line x1="1050" y1="60" x2="1050" y2="1745" stroke="#161b22" stroke-width="1"/>
<line x1="1100" y1="60" x2="1100" y2="1745" stroke="#161b22" stroke-width="1"/>
<line x1="1150" y1="60" x2="1150" y2="1745" stroke="#161b22" stroke-width="1"/>
<line x1="1200" y1="60" x2="1200" y2="1745" stroke="#161b22" stroke-width="1"/>
<line x1="1250" y1="60" x2="1250" y2="1745" stroke="#161b22" stroke-width="1"/>
<line x1="1300" y1="60" x2="1300" y2="1745" stroke="#161b22" stroke-width="1"/>
<line x1="1350" y1="60" x2="1350" y2="1745" stroke="#161b22" stroke-width="1"/>
<line x1="1400" y1="60" x2="1400" y2="1745" stroke="#161b22" stroke-width="1"/>
<line x1="1450" y1="60" x2="1450" y2="1745" stroke="#161b22" stroke-width="1"/>
<line x1="1500" y1="60" x2="1500" y2="1745" stroke="#161b22" stroke-width="1"/>
<line x1="1550" y1="60" x2="1550" y2="1745" stroke="#161b22" stroke-width="1"/>
<line x1="1600" y1="60" x2="1600" y2="1745" stroke="#161b22" stroke-width="1"/>
<line x1="1650" y1="60" x2="1650" y2="1745" stroke="#161b22" stroke-width="1"/>
<line x1="1700" y1="60" x2="1700" y2="1745" stroke="#161b22" stroke-width="1"/>
<line x1="1750" y1="60" x2="1750" y2="1745" stroke="#161b22" stroke-width="1"/>
<line x1="1800" y1="60" x2="1800" y2="1745" stroke="#161b22" stroke-width="1"/>
<line x1="1850" y1="60" x2="1850" y2="1745" stroke="#161b22" stroke-width="1"/>
<line x1="1900" y1="60" x2="1900" y2="1745" stroke="#161b22" stroke-width="1"/>
<line x1="1950" y1="60" x2="1950" y2="1745" stroke="#161b22" stroke-width="1"/>
<line x1="2000" y1="60" x2="2000" y2="1745" stroke="#161b22" stroke-width="1"/>
<line x1="2050" y1="60" x2="2050" y2="1745" stroke="#161b22" stroke-width="1"/>
<line x1="2100" y1="60" x2="2100" y2="1745" stroke="#161b22" stroke-width="1"/>
<line x1="2150" y1="60" x2="2150" y2="1745" stroke="#161b22" stroke-width="1"/>
<line x1="2200" y1="60" x2="2200" y2="1745" stroke="#161b22" stroke-width="1"/>
<line x1="2250" y1="60" x2="2250" y2="1745" stroke="#161b22" stroke-width="1"/>
<line x1="2300" y1="60" x2="2300" y2="1745" stroke="#161b22" stroke-width="1"/>
<line x1="2350" y1="60" x2="2350" y2="1745" stroke="#161b22" stroke-width="1"/>
<line x1="2400" y1="60" x2="2400" y2="1745" stroke="#161b22" stroke-width="1"/>
<line x1="2450" y1="60" x2="2450" y2="1745" stroke="#161b22" stroke-width="1"/>
<line x1="2500" y1="60" x2="2500" y2="1745" stroke="#161b22" stroke-width="1"/>
<line x1="2550" y1="60" x2="2550" y2="1745" stroke="#161b22" stroke-width="1"/>
<line x1="2600" y1="60" x2="2600" y2="1745" stroke="#161b22" stroke-width="1"/>
<line x1="2650" y1="60" x2="2650" y2="1745" stroke="#161b22" stroke-width="1"/>
<line x1="2700" y1="60" x2="2700" y2="1745" stroke="#161b22" stroke-width="1"/>
<line x1="2750" y1="60" x2="2750" y2="1745" stroke="#161b22" stroke-width="1"/>
<line x1="2800" y1="60" x2="2800" y2="1745" stroke="#161b22" stroke-width="1"/>
<line x1="2850" y1="60" x2="2850" y2="1745" stroke="#161b22" stroke-width="1"/>
<line x1="2900" y1="60" x2="2900" y2="1745" stroke="#161b22" stroke-width="1"/>
<line x1="330" y1="50" x2="2933" y2="50" stroke="#161b22" stroke-width="1"/>
<line x1="330" y1="100" x2="2933" y2="100" stroke="#161b22" stroke-width="1"/>
<line x1="330" y1="150" x2="2933" y2="150" stroke="#161b22" stroke-width="1"/>
<line x1="330" y1="200" x2="2933" y2="200" stroke="#161b22" stroke-width="1"/>
<line x1="330" y1="250" x2="2933" y2="250" stroke="#161b22" stroke-width="1"/>
<line x1="330" y1="300" x2="2933" y2="300" stroke="#161b22" stroke-width="1"/>
<line x1="330" y1="350" x2="2933" y2="350" stroke="#161b22" stroke-width="1"/>
<line x1="330" y1="400" x2="2933" y2="400" stroke="#161b22" stroke-width="1"/>
<line x1="330" y1="450" x2="2933" y2="450" stroke="#161b22" stroke-width="1"/>
<line x1="330" y1="500" x2="2933" y2="500" stroke="#161b22" stroke-width="1"/>
<line x1="330" y1="550" x2="2933" y2="550" stroke="#161b22" stroke-width="1"/>
<line x1="330" y1="600" x2="2933" y2="600" stroke="#161b22" stroke-width="1"/>
<line x1="330" y1="650" x2="2933" y2="650" stroke="#161b22" stroke-width="1"/>
<line x1="330" y1="700" x2="2933" y2="700" stroke="#161b22" stroke-width="1"/>
<line x1="330" y1="750" x2="2933" y2="750" stroke="#161b22" stroke-width="1"/>
<line x1="330" y1="800" x2="2933" y2="800" stroke="#161b22" stroke-width="1"/>
<line x1="330" y1="850" x2="2933" y2="850" stroke="#161b22" stroke-width="1"/>
<line x1="330" y1="900" x2="2933" y2="900" stroke="#161b22" stroke-width="1"/>
<line x1="330" y1="950" x2="2933" y2="950" stroke="#161b22" stroke-width="1"/>
<line x1="330" y1="1000" x2="2933" y2="1000" stroke="#161b22" stroke-width="1"/>
<line x1="330" y1="1050" x2="2933" y2="1050" stroke="#161b22" stroke-width="1"/>
<line x1="330" y1="1100" x2="2933" y2="1100" stroke="#161b22" stroke-width="1"/>
<line x1="330" y1="1150" x2="2933" y2="1150" stroke="#161b22" stroke-width="1"/>
<line x1="330" y1="1200" x2="2933" y2="1200" stroke="#161b22" stroke-width="1"/>
<line x1="330" y1="1250" x2="2933" y2="1250" stroke="#161b22" stroke-width="1"/>
<line x1="330" y1="1300" x2="2933" y2="1300" stroke="#161b22" stroke-width="1"/>
<line x1="330" y1="1350" x2="2933" y2="1350" stroke="#161b22" stroke-width="1"/>
<line x1="330" y1="1400" x2="2933" y2="1400" stroke="#161b22" stroke-width="1"/>
<line x1="330" y1="1450" x2="2933" y2="1450" stroke="#161b22" stroke-width="1"/>
<line x1="330" y1="1500" x2="2933" y2="1500" stroke="#161b22" stroke-width="1"/>
<line x1="330" y1="1550" x2="2933" y2="1550" stroke="#161b22" stroke-width="1"/>
<line x1="330" y1="1600" x2="2933" y2="1600" stroke="#161b22" stroke-width="1"/>
<line x1="330" y1="1650" x2="2933" y2="1650" stroke="#161b22" stroke-width="1"/>
<line x1="330" y1="1700" x2="2933" y2="1700" stroke="#161b22" stroke-width="1"/>
</g>
<text x="352" y="94" fill="#e6edf3" font-size="26" font-weight="700">CPU</text>
<text x="352" y="116" fill="#8b949e" font-size="13">RV32I CPU &#183; Logisim-Evolution schematic</text>
<g stroke-linecap="round">
<line x1="1010" y1="990" x2="1010" y2="1090" stroke="#58a6ff" stroke-width="2.4" opacity="0.85"/>
<line x1="1020" y1="1110" x2="1020" y2="1300" stroke="#58a6ff" stroke-width="2.4" opacity="0.85"/>
<line x1="1020" y1="1300" x2="1040" y2="1300" stroke="#58a6ff" stroke-width="2.4" opacity="0.85"/>
<line x1="1030" y1="1490" x2="1040" y2="1490" stroke="#58a6ff" stroke-width="2.4" opacity="0.85"/>
<line x1="1030" y1="1600" x2="1110" y2="1600" stroke="#58a6ff" stroke-width="2.4" opacity="0.85"/>
<line x1="1030" y1="970" x2="1040" y2="970" stroke="#58a6ff" stroke-width="2.4" opacity="0.85"/>
<line x1="1040" y1="1300" x2="1040" y2="1490" stroke="#58a6ff" stroke-width="2.4" opacity="0.85"/>
<line x1="1040" y1="1490" x2="1060" y2="1490" stroke="#58a6ff" stroke-width="2.4" opacity="0.85"/>
<line x1="1040" y1="800" x2="1040" y2="970" stroke="#58a6ff" stroke-width="2.4" opacity="0.85"/>
<line x1="1050" y1="1670" x2="1090" y2="1670" stroke="#58a6ff" stroke-width="2.4" opacity="0.85"/>
<line x1="1060" y1="1110" x2="1060" y2="1270" stroke="#58a6ff" stroke-width="2.4" opacity="0.85"/>
<line x1="1060" y1="1270" x2="1190" y2="1270" stroke="#58a6ff" stroke-width="2.4" opacity="0.85"/>
<line x1="1060" y1="690" x2="1090" y2="690" stroke="#58a6ff" stroke-width="2.4" opacity="0.85"/>
<line x1="1090" y1="1640" x2="1090" y2="1670" stroke="#58a6ff" stroke-width="2.4" opacity="0.85"/>
<line x1="1090" y1="1640" x2="1110" y2="1640" stroke="#58a6ff" stroke-width="2.4" opacity="0.85"/>
<line x1="1160" y1="1620" x2="1190" y2="1620" stroke="#58a6ff" stroke-width="2.4" opacity="0.85"/>
<line x1="1190" y1="1270" x2="1190" y2="1620" stroke="#58a6ff" stroke-width="2.4" opacity="0.85"/>
<line x1="1190" y1="1620" x2="1200" y2="1620" stroke="#58a6ff" stroke-width="2.4" opacity="0.85"/>
<line x1="1300" y1="680" x2="1330" y2="680" stroke="#58a6ff" stroke-width="2.4" opacity="0.85"/>
<line x1="1350" y1="630" x2="1390" y2="630" stroke="#58a6ff" stroke-width="2.4" opacity="0.85"/>
<line x1="1390" y1="630" x2="1390" y2="720" stroke="#58a6ff" stroke-width="2.4" opacity="0.85"/>
<line x1="1390" y1="630" x2="1420" y2="630" stroke="#58a6ff" stroke-width="2.4" opacity="0.85"/>
<line x1="1560" y1="120" x2="1560" y2="560" stroke="#58a6ff" stroke-width="2.4" opacity="0.85"/>
<line x1="1560" y1="120" x2="1790" y2="120" stroke="#58a6ff" stroke-width="2.4" opacity="0.85"/>
<line x1="1560" y1="560" x2="1650" y2="560" stroke="#58a6ff" stroke-width="2.4" opacity="0.85"/>
<line x1="1580" y1="170" x2="1580" y2="320" stroke="#58a6ff" stroke-width="2.4" opacity="0.85"/>
<line x1="1580" y1="170" x2="1800" y2="170" stroke="#58a6ff" stroke-width="2.4" opacity="0.85"/>
<line x1="1580" y1="320" x2="1640" y2="320" stroke="#58a6ff" stroke-width="2.4" opacity="0.85"/>
<line x1="1620" y1="970" x2="1640" y2="970" stroke="#58a6ff" stroke-width="2.4" opacity="0.85"/>
<line x1="1640" y1="300" x2="1640" y2="320" stroke="#58a6ff" stroke-width="2.4" opacity="0.85"/>
<line x1="1640" y1="370" x2="1640" y2="380" stroke="#58a6ff" stroke-width="2.4" opacity="0.85"/>
<line x1="1640" y1="380" x2="1680" y2="380" stroke="#58a6ff" stroke-width="2.4" opacity="0.85"/>
<line x1="1640" y1="440" x2="1710" y2="440" stroke="#58a6ff" stroke-width="2.4" opacity="0.85"/>
<line x1="1640" y1="630" x2="1650" y2="630" stroke="#58a6ff" stroke-width="2.4" opacity="0.85"/>
<line x1="1640" y1="650" x2="1660" y2="650" stroke="#58a6ff" stroke-width="2.4" opacity="0.85"/>
<line x1="1640" y1="670" x2="1680" y2="670" stroke="#58a6ff" stroke-width="2.4" opacity="0.85"/>
<line x1="1640" y1="690" x2="1720" y2="690" stroke="#58a6ff" stroke-width="2.4" opacity="0.85"/>
<line x1="1640" y1="710" x2="1670" y2="710" stroke="#58a6ff" stroke-width="2.4" opacity="0.85"/>
<line x1="1640" y1="730" x2="1690" y2="730" stroke="#58a6ff" stroke-width="2.4" opacity="0.85"/>
<line x1="1640" y1="750" x2="1700" y2="750" stroke="#58a6ff" stroke-width="2.4" opacity="0.85"/>
<line x1="1640" y1="770" x2="1730" y2="770" stroke="#58a6ff" stroke-width="2.4" opacity="0.85"/>
<line x1="1640" y1="790" x2="1640" y2="970" stroke="#58a6ff" stroke-width="2.4" opacity="0.85"/>
<line x1="1650" y1="280" x2="1710" y2="280" stroke="#58a6ff" stroke-width="2.4" opacity="0.85"/>
<line x1="1650" y1="350" x2="1710" y2="350" stroke="#58a6ff" stroke-width="2.4" opacity="0.85"/>
<line x1="1650" y1="420" x2="1710" y2="420" stroke="#58a6ff" stroke-width="2.4" opacity="0.85"/>
<line x1="1650" y1="560" x2="1650" y2="630" stroke="#58a6ff" stroke-width="2.4" opacity="0.85"/>
<line x1="1660" y1="1040" x2="1990" y2="1040" stroke="#58a6ff" stroke-width="2.4" opacity="0.85"/>
<line x1="1660" y1="650" x2="1660" y2="1040" stroke="#58a6ff" stroke-width="2.4" opacity="0.85"/>
<line x1="1670" y1="710" x2="1670" y2="1100" stroke="#58a6ff" stroke-width="2.4" opacity="0.85"/>
<line x1="1680" y1="300" x2="1680" y2="380" stroke="#58a6ff" stroke-width="2.4" opacity="0.85"/>
<line x1="1680" y1="300" x2="1820" y2="300" stroke="#58a6ff" stroke-width="2.4" opacity="0.85"/>
<line x1="1680" y1="670" x2="1680" y2="860" stroke="#58a6ff" stroke-width="2.4" opacity="0.85"/>
<line x1="1680" y1="860" x2="2370" y2="860" stroke="#58a6ff" stroke-width="2.4" opacity="0.85"/>
<line x1="1690" y1="730" x2="1690" y2="880" stroke="#58a6ff" stroke-width="2.4" opacity="0.85"/>
<line x1="1690" y1="880" x2="2360" y2="880" stroke="#58a6ff" stroke-width="2.4" opacity="0.85"/>
<line x1="1700" y1="1060" x2="1710" y2="1060" stroke="#58a6ff" stroke-width="2.4" opacity="0.85"/>
<line x1="1700" y1="240" x2="1710" y2="240" stroke="#58a6ff" stroke-width="2.4" opacity="0.85"/>
<line x1="1700" y1="750" x2="1700" y2="1060" stroke="#58a6ff" stroke-width="2.4" opacity="0.85"/>
<line x1="1710" y1="240" x2="1710" y2="280" stroke="#58a6ff" stroke-width="2.4" opacity="0.85"/>
<line x1="1710" y1="240" x2="1730" y2="240" stroke="#58a6ff" stroke-width="2.4" opacity="0.85"/>
<line x1="1710" y1="280" x2="1710" y2="350" stroke="#58a6ff" stroke-width="2.4" opacity="0.85"/>
<line x1="1710" y1="350" x2="1710" y2="410" stroke="#58a6ff" stroke-width="2.4" opacity="0.85"/>
<line x1="1710" y1="410" x2="1710" y2="420" stroke="#58a6ff" stroke-width="2.4" opacity="0.85"/>
<line x1="1710" y1="440" x2="1710" y2="660" stroke="#58a6ff" stroke-width="2.4" opacity="0.85"/>
<line x1="1710" y1="660" x2="1850" y2="660" stroke="#58a6ff" stroke-width="2.4" opacity="0.85"/>
<line x1="1720" y1="680" x2="1720" y2="690" stroke="#58a6ff" stroke-width="2.4" opacity="0.85"/>
<line x1="1720" y1="680" x2="1850" y2="680" stroke="#58a6ff" stroke-width="2.4" opacity="0.85"/>
<line x1="1730" y1="550" x2="1730" y2="770" stroke="#58a6ff" stroke-width="2.4" opacity="0.85"/>
<line x1="1730" y1="550" x2="1770" y2="550" stroke="#58a6ff" stroke-width="2.4" opacity="0.85"/>
<line x1="1740" y1="530" x2="1770" y2="530" stroke="#58a6ff" stroke-width="2.4" opacity="0.85"/>
<line x1="1750" y1="190" x2="1780" y2="190" stroke="#58a6ff" stroke-width="2.4" opacity="0.85"/>
<line x1="1750" y1="260" x2="1790" y2="260" stroke="#58a6ff" stroke-width="2.4" opacity="0.85"/>
<line x1="1780" y1="190" x2="1780" y2="270" stroke="#58a6ff" stroke-width="2.4" opacity="0.85"/>
<line x1="1780" y1="270" x2="1820" y2="270" stroke="#58a6ff" stroke-width="2.4" opacity="0.85"/>
<line x1="1790" y1="120" x2="1790" y2="210" stroke="#58a6ff" stroke-width="2.4" opacity="0.85"/>
<line x1="1790" y1="210" x2="1820" y2="210" stroke="#58a6ff" stroke-width="2.4" opacity="0.85"/>
<line x1="1790" y1="250" x2="1790" y2="260" stroke="#58a6ff" stroke-width="2.4" opacity="0.85"/>
<line x1="1790" y1="250" x2="1820" y2="250" stroke="#58a6ff" stroke-width="2.4" opacity="0.85"/>
<line x1="1800" y1="170" x2="1800" y2="190" stroke="#58a6ff" stroke-width="2.4" opacity="0.85"/>
<line x1="1800" y1="190" x2="1820" y2="190" stroke="#58a6ff" stroke-width="2.4" opacity="0.85"/>
<line x1="1800" y1="230" x2="1800" y2="440" stroke="#58a6ff" stroke-width="2.4" opacity="0.85"/>
<line x1="1800" y1="230" x2="1820" y2="230" stroke="#58a6ff" stroke-width="2.4" opacity="0.85"/>
<line x1="1800" y1="440" x2="2030" y2="440" stroke="#58a6ff" stroke-width="2.4" opacity="0.85"/>
<line x1="1820" y1="190" x2="1830" y2="190" stroke="#58a6ff" stroke-width="2.4" opacity="0.85"/>
<line x1="1820" y1="290" x2="1820" y2="300" stroke="#58a6ff" stroke-width="2.4" opacity="0.85"/>
<line x1="1990" y1="530" x2="2010" y2="530" stroke="#58a6ff" stroke-width="2.4" opacity="0.85"/>
<line x1="2010" y1="470" x2="2010" y2="530" stroke="#58a6ff" stroke-width="2.4" opacity="0.85"/>
<line x1="2010" y1="470" x2="2230" y2="470" stroke="#58a6ff" stroke-width="2.4" opacity="0.85"/>
<line x1="2010" y1="530" x2="2030" y2="530" stroke="#58a6ff" stroke-width="2.4" opacity="0.85"/>
<line x1="2030" y1="390" x2="2030" y2="440" stroke="#58a6ff" stroke-width="2.4" opacity="0.85"/>
<line x1="2030" y1="390" x2="2150" y2="390" stroke="#58a6ff" stroke-width="2.4" opacity="0.85"/>
<line x1="2030" y1="520" x2="2030" y2="530" stroke="#58a6ff" stroke-width="2.4" opacity="0.85"/>
<line x1="2030" y1="520" x2="2060" y2="520" stroke="#58a6ff" stroke-width="2.4" opacity="0.85"/>
<line x1="2040" y1="180" x2="2040" y2="190" stroke="#58a6ff" stroke-width="2.4" opacity="0.85"/>
<line x1="2040" y1="180" x2="2050" y2="180" stroke="#58a6ff" stroke-width="2.4" opacity="0.85"/>
<line x1="2040" y1="210" x2="2040" y2="220" stroke="#58a6ff" stroke-width="2.4" opacity="0.85"/>
<line x1="2040" y1="220" x2="2050" y2="220" stroke="#58a6ff" stroke-width="2.4" opacity="0.85"/>
<line x1="2070" y1="640" x2="2070" y2="680" stroke="#58a6ff" stroke-width="2.4" opacity="0.85"/>
<line x1="2070" y1="680" x2="2130" y2="680" stroke="#58a6ff" stroke-width="2.4" opacity="0.85"/>
<line x1="2100" y1="540" x2="2100" y2="660" stroke="#58a6ff" stroke-width="2.4" opacity="0.85"/>
<line x1="2100" y1="540" x2="2190" y2="540" stroke="#58a6ff" stroke-width="2.4" opacity="0.85"/>
<line x1="2100" y1="660" x2="2130" y2="660" stroke="#58a6ff" stroke-width="2.4" opacity="0.85"/>
<line x1="2120" y1="580" x2="2120" y2="640" stroke="#58a6ff" stroke-width="2.4" opacity="0.85"/>
<line x1="2120" y1="580" x2="2300" y2="580" stroke="#58a6ff" stroke-width="2.4" opacity="0.85"/>
<line x1="2120" y1="640" x2="2130" y2="640" stroke="#58a6ff" stroke-width="2.4" opacity="0.85"/>
<line x1="2150" y1="140" x2="2150" y2="390" stroke="#58a6ff" stroke-width="2.4" opacity="0.85"/>
<line x1="2150" y1="140" x2="2410" y2="140" stroke="#58a6ff" stroke-width="2.4" opacity="0.85"/>
<line x1="2170" y1="440" x2="2180" y2="440" stroke="#58a6ff" stroke-width="2.4" opacity="0.85"/>
<line x1="2180" y1="440" x2="2180" y2="450" stroke="#58a6ff" stroke-width="2.4" opacity="0.85"/>
<line x1="2180" y1="450" x2="2190" y2="450" stroke="#58a6ff" stroke-width="2.4" opacity="0.85"/>
<line x1="2190" y1="240" x2="2190" y2="450" stroke="#58a6ff" stroke-width="2.4" opacity="0.85"/>
<line x1="2190" y1="240" x2="2310" y2="240" stroke="#58a6ff" stroke-width="2.4" opacity="0.85"/>
<line x1="2190" y1="450" x2="2190" y2="540" stroke="#58a6ff" stroke-width="2.4" opacity="0.85"/>
<line x1="2210" y1="260" x2="2210" y2="370" stroke="#58a6ff" stroke-width="2.4" opacity="0.85"/>
<line x1="2210" y1="260" x2="2310" y2="260" stroke="#58a6ff" stroke-width="2.4" opacity="0.85"/>
<line x1="2210" y1="370" x2="2210" y2="450" stroke="#58a6ff" stroke-width="2.4" opacity="0.85"/>
<line x1="2210" y1="370" x2="2250" y2="370" stroke="#58a6ff" stroke-width="2.4" opacity="0.85"/>
<line x1="2210" y1="450" x2="2230" y2="450" stroke="#58a6ff" stroke-width="2.4" opacity="0.85"/>
<line x1="2240" y1="480" x2="2240" y2="500" stroke="#58a6ff" stroke-width="2.4" opacity="0.85"/>
<line x1="2240" y1="920" x2="2250" y2="920" stroke="#58a6ff" stroke-width="2.4" opacity="0.85"/>
<line x1="2250" y1="870" x2="2250" y2="920" stroke="#58a6ff" stroke-width="2.4" opacity="0.85"/>
<line x1="2250" y1="870" x2="2410" y2="870" stroke="#58a6ff" stroke-width="2.4" opacity="0.85"/>
<line x1="2260" y1="280" x2="2260" y2="310" stroke="#58a6ff" stroke-width="2.4" opacity="0.85"/>
<line x1="2260" y1="280" x2="2310" y2="280" stroke="#58a6ff" stroke-width="2.4" opacity="0.85"/>
<line x1="2260" y1="460" x2="2300" y2="460" stroke="#58a6ff" stroke-width="2.4" opacity="0.85"/>
<line x1="2290" y1="840" x2="2420" y2="840" stroke="#58a6ff" stroke-width="2.4" opacity="0.85"/>
<line x1="2300" y1="460" x2="2300" y2="580" stroke="#58a6ff" stroke-width="2.4" opacity="0.85"/>
<line x1="2350" y1="660" x2="2350" y2="810" stroke="#58a6ff" stroke-width="2.4" opacity="0.85"/>
<line x1="2350" y1="660" x2="2420" y2="660" stroke="#58a6ff" stroke-width="2.4" opacity="0.85"/>
<line x1="2350" y1="810" x2="2390" y2="810" stroke="#58a6ff" stroke-width="2.4" opacity="0.85"/>
<line x1="2360" y1="880" x2="2360" y2="920" stroke="#58a6ff" stroke-width="2.4" opacity="0.85"/>
<line x1="2360" y1="920" x2="2420" y2="920" stroke="#58a6ff" stroke-width="2.4" opacity="0.85"/>
<line x1="2370" y1="860" x2="2370" y2="900" stroke="#58a6ff" stroke-width="2.4" opacity="0.85"/>
<line x1="2370" y1="900" x2="2420" y2="900" stroke="#58a6ff" stroke-width="2.4" opacity="0.85"/>
<line x1="2370" y1="940" x2="2420" y2="940" stroke="#58a6ff" stroke-width="2.4" opacity="0.85"/>
<line x1="2390" y1="810" x2="2390" y2="860" stroke="#58a6ff" stroke-width="2.4" opacity="0.85"/>
<line x1="2390" y1="860" x2="2420" y2="860" stroke="#58a6ff" stroke-width="2.4" opacity="0.85"/>
<line x1="2410" y1="140" x2="2410" y2="520" stroke="#58a6ff" stroke-width="2.4" opacity="0.85"/>
<line x1="2410" y1="520" x2="2450" y2="520" stroke="#58a6ff" stroke-width="2.4" opacity="0.85"/>
<line x1="2410" y1="870" x2="2410" y2="880" stroke="#58a6ff" stroke-width="2.4" opacity="0.85"/>
<line x1="2410" y1="880" x2="2420" y2="880" stroke="#58a6ff" stroke-width="2.4" opacity="0.85"/>
<line x1="2420" y1="660" x2="2420" y2="680" stroke="#58a6ff" stroke-width="2.4" opacity="0.85"/>
<line x1="2420" y1="680" x2="2420" y2="690" stroke="#58a6ff" stroke-width="2.4" opacity="0.85"/>
<line x1="2420" y1="680" x2="2620" y2="680" stroke="#58a6ff" stroke-width="2.4" opacity="0.85"/>
<line x1="2450" y1="520" x2="2450" y2="590" stroke="#58a6ff" stroke-width="2.4" opacity="0.85"/>
<line x1="2450" y1="590" x2="2750" y2="590" stroke="#58a6ff" stroke-width="2.4" opacity="0.85"/>
<line x1="2530" y1="240" x2="2650" y2="240" stroke="#58a6ff" stroke-width="2.4" opacity="0.85"/>
<line x1="2610" y1="720" x2="2680" y2="720" stroke="#58a6ff" stroke-width="2.4" opacity="0.85"/>
<line x1="2610" y1="770" x2="2620" y2="770" stroke="#58a6ff" stroke-width="2.4" opacity="0.85"/>
<line x1="2620" y1="470" x2="2650" y2="470" stroke="#58a6ff" stroke-width="2.4" opacity="0.85"/>
<line x1="2620" y1="680" x2="2620" y2="700" stroke="#58a6ff" stroke-width="2.4" opacity="0.85"/>
<line x1="2620" y1="700" x2="2680" y2="700" stroke="#58a6ff" stroke-width="2.4" opacity="0.85"/>
<line x1="2620" y1="730" x2="2620" y2="770" stroke="#58a6ff" stroke-width="2.4" opacity="0.85"/>
<line x1="2620" y1="730" x2="2680" y2="730" stroke="#58a6ff" stroke-width="2.4" opacity="0.85"/>
<line x1="2630" y1="280" x2="2650" y2="280" stroke="#58a6ff" stroke-width="2.4" opacity="0.85"/>
<line x1="2640" y1="710" x2="2640" y2="840" stroke="#58a6ff" stroke-width="2.4" opacity="0.85"/>
<line x1="2640" y1="710" x2="2680" y2="710" stroke="#58a6ff" stroke-width="2.4" opacity="0.85"/>
<line x1="2640" y1="840" x2="2650" y2="840" stroke="#58a6ff" stroke-width="2.4" opacity="0.85"/>
<line x1="2650" y1="450" x2="2650" y2="470" stroke="#58a6ff" stroke-width="2.4" opacity="0.85"/>
<line x1="2650" y1="450" x2="2810" y2="450" stroke="#58a6ff" stroke-width="2.4" opacity="0.85"/>
<line x1="2650" y1="470" x2="2680" y2="470" stroke="#58a6ff" stroke-width="2.4" opacity="0.85"/>
<line x1="2690" y1="510" x2="2750" y2="510" stroke="#58a6ff" stroke-width="2.4" opacity="0.85"/>
<line x1="2700" y1="260" x2="2730" y2="260" stroke="#58a6ff" stroke-width="2.4" opacity="0.85"/>
<line x1="2700" y1="730" x2="2700" y2="740" stroke="#58a6ff" stroke-width="2.4" opacity="0.85"/>
<line x1="2700" y1="740" x2="2700" y2="760" stroke="#58a6ff" stroke-width="2.4" opacity="0.85"/>
<line x1="2700" y1="760" x2="2860" y2="760" stroke="#58a6ff" stroke-width="2.4" opacity="0.85"/>
<line x1="2710" y1="470" x2="2750" y2="470" stroke="#58a6ff" stroke-width="2.4" opacity="0.85"/>
<line x1="2720" y1="720" x2="2750" y2="720" stroke="#58a6ff" stroke-width="2.4" opacity="0.85"/>
<line x1="2750" y1="590" x2="2750" y2="720" stroke="#58a6ff" stroke-width="2.4" opacity="0.85"/>
<line x1="2800" y1="490" x2="2840" y2="490" stroke="#58a6ff" stroke-width="2.4" opacity="0.85"/>
<line x1="2810" y1="450" x2="2810" y2="530" stroke="#58a6ff" stroke-width="2.4" opacity="0.85"/>
<line x1="2810" y1="530" x2="2840" y2="530" stroke="#58a6ff" stroke-width="2.4" opacity="0.85"/>
<line x1="2860" y1="540" x2="2860" y2="760" stroke="#58a6ff" stroke-width="2.4" opacity="0.85"/>
<line x1="420" y1="700" x2="430" y2="700" stroke="#58a6ff" stroke-width="2.4" opacity="0.85"/>
<line x1="420" y1="730" x2="440" y2="730" stroke="#58a6ff" stroke-width="2.4" opacity="0.85"/>
<line x1="430" y1="700" x2="430" y2="710" stroke="#58a6ff" stroke-width="2.4" opacity="0.85"/>
<line x1="430" y1="710" x2="460" y2="710" stroke="#58a6ff" stroke-width="2.4" opacity="0.85"/>
<line x1="440" y1="730" x2="440" y2="810" stroke="#58a6ff" stroke-width="2.4" opacity="0.85"/>
<line x1="440" y1="730" x2="540" y2="730" stroke="#58a6ff" stroke-width="2.4" opacity="0.85"/>
<line x1="460" y1="650" x2="460" y2="710" stroke="#58a6ff" stroke-width="2.4" opacity="0.85"/>
<line x1="460" y1="710" x2="540" y2="710" stroke="#58a6ff" stroke-width="2.4" opacity="0.85"/>
<line x1="500" y1="780" x2="500" y2="800" stroke="#58a6ff" stroke-width="2.4" opacity="0.85"/>
<line x1="500" y1="780" x2="520" y2="780" stroke="#58a6ff" stroke-width="2.4" opacity="0.85"/>
<line x1="500" y1="800" x2="1040" y2="800" stroke="#58a6ff" stroke-width="2.4" opacity="0.85"/>
<line x1="520" y1="1440" x2="620" y2="1440" stroke="#58a6ff" stroke-width="2.4" opacity="0.85"/>
<line x1="520" y1="690" x2="520" y2="780" stroke="#58a6ff" stroke-width="2.4" opacity="0.85"/>
<line x1="520" y1="690" x2="540" y2="690" stroke="#58a6ff" stroke-width="2.4" opacity="0.85"/>
<line x1="530" y1="880" x2="630" y2="880" stroke="#58a6ff" stroke-width="2.4" opacity="0.85"/>
<line x1="540" y1="1270" x2="640" y2="1270" stroke="#58a6ff" stroke-width="2.4" opacity="0.85"/>
<line x1="540" y1="900" x2="630" y2="900" stroke="#58a6ff" stroke-width="2.4" opacity="0.85"/>
<line x1="550" y1="1080" x2="630" y2="1080" stroke="#58a6ff" stroke-width="2.4" opacity="0.85"/>
<line x1="550" y1="1110" x2="560" y2="1110" stroke="#58a6ff" stroke-width="2.4" opacity="0.85"/>
<line x1="560" y1="1100" x2="560" y2="1110" stroke="#58a6ff" stroke-width="2.4" opacity="0.85"/>
<line x1="560" y1="1100" x2="630" y2="1100" stroke="#58a6ff" stroke-width="2.4" opacity="0.85"/>
<line x1="610" y1="1250" x2="640" y2="1250" stroke="#58a6ff" stroke-width="2.4" opacity="0.85"/>
<line x1="670" y1="1090" x2="720" y2="1090" stroke="#58a6ff" stroke-width="2.4" opacity="0.85"/>
<line x1="670" y1="1460" x2="700" y2="1460" stroke="#58a6ff" stroke-width="2.4" opacity="0.85"/>
<line x1="670" y1="890" x2="700" y2="890" stroke="#58a6ff" stroke-width="2.4" opacity="0.85"/>
<line x1="680" y1="1260" x2="750" y2="1260" stroke="#58a6ff" stroke-width="2.4" opacity="0.85"/>
<line x1="690" y1="950" x2="700" y2="950" stroke="#58a6ff" stroke-width="2.4" opacity="0.85"/>
<line x1="700" y1="1460" x2="700" y2="1510" stroke="#58a6ff" stroke-width="2.4" opacity="0.85"/>
<line x1="700" y1="1460" x2="720" y2="1460" stroke="#58a6ff" stroke-width="2.4" opacity="0.85"/>
<line x1="700" y1="1510" x2="860" y2="1510" stroke="#58a6ff" stroke-width="2.4" opacity="0.85"/>
<line x1="700" y1="890" x2="700" y2="950" stroke="#58a6ff" stroke-width="2.4" opacity="0.85"/>
<line x1="700" y1="950" x2="990" y2="950" stroke="#58a6ff" stroke-width="2.4" opacity="0.85"/>
<line x1="720" y1="1090" x2="740" y2="1090" stroke="#58a6ff" stroke-width="2.4" opacity="0.85"/>
<line x1="720" y1="960" x2="720" y2="1090" stroke="#58a6ff" stroke-width="2.4" opacity="0.85"/>
<line x1="720" y1="960" x2="990" y2="960" stroke="#58a6ff" stroke-width="2.4" opacity="0.85"/>
<line x1="750" y1="610" x2="750" y2="630" stroke="#58a6ff" stroke-width="2.4" opacity="0.85"/>
<line x1="750" y1="610" x2="760" y2="610" stroke="#58a6ff" stroke-width="2.4" opacity="0.85"/>
<line x1="750" y1="630" x2="760" y2="630" stroke="#58a6ff" stroke-width="2.4" opacity="0.85"/>
<line x1="760" y1="1280" x2="760" y2="1320" stroke="#58a6ff" stroke-width="2.4" opacity="0.85"/>
<line x1="760" y1="580" x2="760" y2="610" stroke="#58a6ff" stroke-width="2.4" opacity="0.85"/>
<line x1="760" y1="580" x2="860" y2="580" stroke="#58a6ff" stroke-width="2.4" opacity="0.85"/>
<line x1="760" y1="610" x2="770" y2="610" stroke="#58a6ff" stroke-width="2.4" opacity="0.85"/>
<line x1="760" y1="630" x2="760" y2="690" stroke="#58a6ff" stroke-width="2.4" opacity="0.85"/>
<line x1="800" y1="1300" x2="800" y2="1320" stroke="#58a6ff" stroke-width="2.4" opacity="0.85"/>
<line x1="800" y1="1300" x2="820" y2="1300" stroke="#58a6ff" stroke-width="2.4" opacity="0.85"/>
<line x1="810" y1="1340" x2="880" y2="1340" stroke="#58a6ff" stroke-width="2.4" opacity="0.85"/>
<line x1="820" y1="1140" x2="820" y2="1300" stroke="#58a6ff" stroke-width="2.4" opacity="0.85"/>
<line x1="820" y1="1140" x2="910" y2="1140" stroke="#58a6ff" stroke-width="2.4" opacity="0.85"/>
<line x1="820" y1="1300" x2="840" y2="1300" stroke="#58a6ff" stroke-width="2.4" opacity="0.85"/>
<line x1="850" y1="480" x2="860" y2="480" stroke="#58a6ff" stroke-width="2.4" opacity="0.85"/>
<line x1="860" y1="1510" x2="860" y2="1620" stroke="#58a6ff" stroke-width="2.4" opacity="0.85"/>
<line x1="860" y1="1510" x2="900" y2="1510" stroke="#58a6ff" stroke-width="2.4" opacity="0.85"/>
<line x1="860" y1="1620" x2="980" y2="1620" stroke="#58a6ff" stroke-width="2.4" opacity="0.85"/>
<line x1="860" y1="480" x2="860" y2="580" stroke="#58a6ff" stroke-width="2.4" opacity="0.85"/>
<line x1="880" y1="1340" x2="900" y2="1340" stroke="#58a6ff" stroke-width="2.4" opacity="0.85"/>
<line x1="880" y1="970" x2="880" y2="1340" stroke="#58a6ff" stroke-width="2.4" opacity="0.85"/>
<line x1="880" y1="970" x2="990" y2="970" stroke="#58a6ff" stroke-width="2.4" opacity="0.85"/>
<line x1="930" y1="1510" x2="980" y2="1510" stroke="#58a6ff" stroke-width="2.4" opacity="0.85"/>
<line x1="940" y1="1470" x2="960" y2="1470" stroke="#58a6ff" stroke-width="2.4" opacity="0.85"/>
<line x1="950" y1="1140" x2="960" y2="1140" stroke="#58a6ff" stroke-width="2.4" opacity="0.85"/>
<line x1="960" y1="1470" x2="960" y2="1580" stroke="#58a6ff" stroke-width="2.4" opacity="0.85"/>
<line x1="960" y1="1470" x2="980" y2="1470" stroke="#58a6ff" stroke-width="2.4" opacity="0.85"/>
<line x1="960" y1="1580" x2="980" y2="1580" stroke="#58a6ff" stroke-width="2.4" opacity="0.85"/>
<line x1="960" y1="980" x2="960" y2="1140" stroke="#58a6ff" stroke-width="2.4" opacity="0.85"/>
<line x1="960" y1="980" x2="990" y2="980" stroke="#58a6ff" stroke-width="2.4" opacity="0.85"/>
</g>
<circle cx="1040" cy="1490" r="3.2" fill="#58a6ff"/>
<circle cx="1190" cy="1620" r="3.2" fill="#58a6ff"/>
<circle cx="1390" cy="630" r="3.2" fill="#58a6ff"/>
<circle cx="1710" cy="280" r="3.2" fill="#58a6ff"/>
<circle cx="1710" cy="350" r="3.2" fill="#58a6ff"/>
<circle cx="1710" cy="240" r="3.2" fill="#58a6ff"/>
<circle cx="2010" cy="530" r="3.2" fill="#58a6ff"/>
<circle cx="2190" cy="450" r="3.2" fill="#58a6ff"/>
<circle cx="2210" cy="370" r="3.2" fill="#58a6ff"/>
<circle cx="2420" cy="680" r="3.2" fill="#58a6ff"/>
<circle cx="2650" cy="470" r="3.2" fill="#58a6ff"/>
<circle cx="440" cy="730" r="3.2" fill="#58a6ff"/>
<circle cx="460" cy="710" r="3.2" fill="#58a6ff"/>
<circle cx="720" cy="1090" r="3.2" fill="#58a6ff"/>
<circle cx="700" cy="1460" r="3.2" fill="#58a6ff"/>
<circle cx="700" cy="950" r="3.2" fill="#58a6ff"/>
<circle cx="860" cy="1510" r="3.2" fill="#58a6ff"/>
<circle cx="760" cy="610" r="3.2" fill="#58a6ff"/>
<circle cx="820" cy="1300" r="3.2" fill="#58a6ff"/>
<circle cx="880" cy="1340" r="3.2" fill="#58a6ff"/>
<circle cx="960" cy="1470" r="3.2" fill="#58a6ff"/>
<rect x="997" y="1055" width="26" height="70" rx="6" fill="#30363d" stroke="#8b949e" stroke-width="2"/>
<text x="1010" y="1095" fill="#fff" font-size="12" font-weight="500" text-anchor="middle">Splitter</text>
<rect x="1007" y="1657" width="86" height="26" rx="13" fill="#21262d" stroke="#444c56" stroke-width="1.2"/>
<text x="1050" y="1674" fill="#7ee787" font-size="12" text-anchor="middle">do_branch</text>
<rect x="1025" y="1477" width="70" height="26" rx="13" fill="#21262d" stroke="#444c56" stroke-width="1.2"/>
<text x="1060" y="1494" fill="#7ee787" font-size="12" text-anchor="middle">is_jalr</text>
<rect x="1039" y="677" width="102" height="26" rx="13" fill="#21262d" stroke="#444c56" stroke-width="1.2"/>
<text x="1090" y="694" fill="#7ee787" font-size="12" text-anchor="middle">instruction</text>
<rect x="1129" y="1607" width="142" height="26" rx="13" fill="#21262d" stroke="#444c56" stroke-width="1.2"/>
<text x="1200" y="1624" fill="#7ee787" font-size="12" text-anchor="middle">is_branch_or_jal</text>
<rect x="1249" y="667" width="102" height="26" rx="13" fill="#21262d" stroke="#444c56" stroke-width="1.2"/>
<text x="1300" y="684" fill="#7ee787" font-size="12" text-anchor="middle">instruction</text>
<rect x="1317" y="645" width="26" height="70" rx="6" fill="#30363d" stroke="#8b949e" stroke-width="2"/>
<text x="1330" y="685" fill="#fff" font-size="12" font-weight="500" text-anchor="middle">Splitter</text>
<rect x="1359" y="707" width="62" height="26" rx="13" fill="#21262d" stroke="#444c56" stroke-width="1.2"/>
<text x="1390" y="724" fill="#7ee787" font-size="12" text-anchor="middle">opcode</text>
<rect x="1597" y="957" width="46" height="26" rx="13" fill="#21262d" stroke="#444c56" stroke-width="1.2"/>
<text x="1620" y="974" fill="#7ee787" font-size="12" text-anchor="middle">jump</text>
<rect x="1637" y="245" width="26" height="70" rx="6" fill="#30363d" stroke="#8b949e" stroke-width="2"/>
<text x="1650" y="285" fill="#fff" font-size="12" font-weight="500" text-anchor="middle">Splitter</text>
<rect x="1637" y="315" width="26" height="70" rx="6" fill="#30363d" stroke="#8b949e" stroke-width="2"/>
<text x="1650" y="355" fill="#fff" font-size="12" font-weight="500" text-anchor="middle">Splitter</text>
<rect x="1637" y="385" width="26" height="70" rx="6" fill="#30363d" stroke="#8b949e" stroke-width="2"/>
<text x="1650" y="425" fill="#fff" font-size="12" font-weight="500" text-anchor="middle">Splitter</text>
<rect x="1623" y="1087" width="94" height="26" rx="13" fill="#21262d" stroke="#444c56" stroke-width="1.2"/>
<text x="1670" y="1104" fill="#7ee787" font-size="12" text-anchor="middle">mem_to_reg</text>
<rect x="1649" y="227" width="102" height="26" rx="13" fill="#21262d" stroke="#444c56" stroke-width="1.2"/>
<text x="1700" y="244" fill="#7ee787" font-size="12" text-anchor="middle">instruction</text>
<rect x="1679" y="1047" width="62" height="26" rx="13" fill="#21262d" stroke="#444c56" stroke-width="1.2"/>
<text x="1710" y="1064" fill="#7ee787" font-size="12" text-anchor="middle">branch</text>
<rect x="1697" y="375" width="26" height="70" rx="6" fill="#30363d" stroke="#8b949e" stroke-width="2"/>
<text x="1710" y="415" fill="#fff" font-size="12" font-weight="500" text-anchor="middle">Splitter</text>
<rect x="1717" y="205" width="26" height="70" rx="6" fill="#30363d" stroke="#8b949e" stroke-width="2"/>
<text x="1730" y="245" fill="#fff" font-size="12" font-weight="500" text-anchor="middle">Splitter</text>
<rect x="1699" y="347" width="62" height="26" rx="13" fill="#21262d" stroke="#444c56" stroke-width="1.2"/>
<text x="1730" y="364" fill="#7ee787" font-size="12" text-anchor="middle">funct3</text>
<rect x="1689" y="517" width="102" height="26" rx="13" fill="#21262d" stroke="#444c56" stroke-width="1.2"/>
<text x="1740" y="534" fill="#7ee787" font-size="12" text-anchor="middle">instruction</text>
<rect x="1730" y="247" width="40" height="26" rx="13" fill="#21262d" stroke="#444c56" stroke-width="1.2"/>
<text x="1750" y="264" fill="#7ee787" font-size="12" text-anchor="middle">clk</text>
<rect x="1819" y="627" width="62" height="26" rx="13" fill="#21262d" stroke="#444c56" stroke-width="1.2"/>
<text x="1850" y="644" fill="#7ee787" font-size="12" text-anchor="middle">funct3</text>
<rect x="1955" y="1027" width="70" height="26" rx="13" fill="#21262d" stroke="#444c56" stroke-width="1.2"/>
<text x="1990" y="1044" fill="#7ee787" font-size="12" text-anchor="middle">alu_src</text>
<rect x="2015" y="167" width="70" height="26" rx="13" fill="#21262d" stroke="#444c56" stroke-width="1.2"/>
<text x="2050" y="184" fill="#7ee787" font-size="12" text-anchor="middle">rs1_val</text>
<rect x="2015" y="207" width="70" height="26" rx="13" fill="#21262d" stroke="#444c56" stroke-width="1.2"/>
<text x="2050" y="224" fill="#7ee787" font-size="12" text-anchor="middle">rs2_val</text>
<rect x="2025" y="507" width="70" height="26" rx="13" fill="#21262d" stroke="#444c56" stroke-width="1.2"/>
<text x="2060" y="524" fill="#7ee787" font-size="12" text-anchor="middle">imm_out</text>
<rect x="2135" y="427" width="70" height="26" rx="13" fill="#21262d" stroke="#444c56" stroke-width="1.2"/>
<text x="2170" y="444" fill="#7ee787" font-size="12" text-anchor="middle">rs1_val</text>
<rect x="2205" y="487" width="70" height="26" rx="13" fill="#21262d" stroke="#444c56" stroke-width="1.2"/>
<text x="2240" y="504" fill="#7ee787" font-size="12" text-anchor="middle">alu_src</text>
<rect x="2205" y="907" width="70" height="26" rx="13" fill="#21262d" stroke="#444c56" stroke-width="1.2"/>
<text x="2240" y="924" fill="#7ee787" font-size="12" text-anchor="middle">rs2_val</text>
<rect x="2215" y="357" width="70" height="26" rx="13" fill="#21262d" stroke="#444c56" stroke-width="1.2"/>
<text x="2250" y="374" fill="#7ee787" font-size="12" text-anchor="middle">rs2_val</text>
<rect x="2229" y="297" width="62" height="26" rx="13" fill="#21262d" stroke="#444c56" stroke-width="1.2"/>
<text x="2260" y="314" fill="#7ee787" font-size="12" text-anchor="middle">funct3</text>
<rect x="2259" y="827" width="62" height="26" rx="13" fill="#21262d" stroke="#444c56" stroke-width="1.2"/>
<text x="2290" y="844" fill="#7ee787" font-size="12" text-anchor="middle">funct3</text>
<rect x="2350" y="927" width="40" height="26" rx="13" fill="#21262d" stroke="#444c56" stroke-width="1.2"/>
<text x="2370" y="944" fill="#7ee787" font-size="12" text-anchor="middle">clk</text>
<rect x="2373" y="677" width="94" height="26" rx="13" fill="#21262d" stroke="#444c56" stroke-width="1.2"/>
<text x="2420" y="694" fill="#7ee787" font-size="12" text-anchor="middle">alu_result</text>
<rect x="2567" y="707" width="86" height="26" rx="13" fill="#21262d" stroke="#444c56" stroke-width="1.2"/>
<text x="2610" y="724" fill="#7ee787" font-size="12" text-anchor="middle">pc_plus_4</text>
<rect x="2578" y="755" width="64" height="30" rx="6" fill="#30363d" stroke="#8b949e" stroke-width="2"/>
<text x="2610" y="775" fill="#fff" font-size="12" font-weight="500" text-anchor="middle">const</text>
<rect x="2597" y="457" width="46" height="26" rx="13" fill="#21262d" stroke="#444c56" stroke-width="1.2"/>
<text x="2620" y="474" fill="#7ee787" font-size="12" text-anchor="middle">jump</text>
<rect x="2599" y="267" width="62" height="26" rx="13" fill="#21262d" stroke="#444c56" stroke-width="1.2"/>
<text x="2630" y="284" fill="#7ee787" font-size="12" text-anchor="middle">branch</text>
<rect x="2611" y="827" width="78" height="26" rx="13" fill="#21262d" stroke="#444c56" stroke-width="1.2"/>
<text x="2650" y="844" fill="#7ee787" font-size="12" text-anchor="middle">mem_data</text>
<rect x="2643" y="497" width="94" height="26" rx="13" fill="#21262d" stroke="#444c56" stroke-width="1.2"/>
<text x="2690" y="514" fill="#7ee787" font-size="12" text-anchor="middle">mem_to_reg</text>
<rect x="2687" y="247" width="86" height="26" rx="13" fill="#21262d" stroke="#444c56" stroke-width="1.2"/>
<text x="2730" y="264" fill="#7ee787" font-size="12" text-anchor="middle">do_branch</text>
<rect x="2847" y="505" width="26" height="70" rx="6" fill="#30363d" stroke="#8b949e" stroke-width="2"/>
<text x="2860" y="545" fill="#fff" font-size="12" font-weight="500" text-anchor="middle">Splitter</text>
<rect x="390" y="675" width="61" height="50" rx="6" fill="#238636" stroke="#56d364" stroke-width="2"/>
<text x="420" y="705" fill="#fff" font-size="13" font-weight="600" text-anchor="middle">reset</text>
<rect x="397" y="705" width="46" height="50" rx="6" fill="#238636" stroke="#56d364" stroke-width="2"/>
<text x="420" y="735" fill="#fff" font-size="13" font-weight="600" text-anchor="middle">clk</text>
<rect x="420" y="797" width="40" height="26" rx="13" fill="#21262d" stroke="#444c56" stroke-width="1.2"/>
<text x="440" y="814" fill="#7ee787" font-size="12" text-anchor="middle">clk</text>
<rect x="433" y="637" width="54" height="26" rx="13" fill="#21262d" stroke="#444c56" stroke-width="1.2"/>
<text x="460" y="654" fill="#7ee787" font-size="12" text-anchor="middle">reset</text>
<rect x="489" y="1427" width="62" height="26" rx="13" fill="#21262d" stroke="#444c56" stroke-width="1.2"/>
<text x="520" y="1444" fill="#7ee787" font-size="12" text-anchor="middle">opcode</text>
<rect x="510" y="867" width="40" height="26" rx="13" fill="#21262d" stroke="#444c56" stroke-width="1.2"/>
<text x="530" y="884" fill="#7ee787" font-size="12" text-anchor="middle">pc</text>
<rect x="505" y="1257" width="70" height="26" rx="13" fill="#21262d" stroke="#444c56" stroke-width="1.2"/>
<text x="540" y="1274" fill="#7ee787" font-size="12" text-anchor="middle">imm_out</text>
<rect x="508" y="885" width="64" height="30" rx="6" fill="#30363d" stroke="#8b949e" stroke-width="2"/>
<text x="540" y="905" fill="#fff" font-size="12" font-weight="500" text-anchor="middle">const</text>
<rect x="530" y="1067" width="40" height="26" rx="13" fill="#21262d" stroke="#444c56" stroke-width="1.2"/>
<text x="550" y="1084" fill="#7ee787" font-size="12" text-anchor="middle">pc</text>
<rect x="515" y="1097" width="70" height="26" rx="13" fill="#21262d" stroke="#444c56" stroke-width="1.2"/>
<text x="550" y="1114" fill="#7ee787" font-size="12" text-anchor="middle">imm_out</text>
<rect x="575" y="1237" width="70" height="26" rx="13" fill="#21262d" stroke="#444c56" stroke-width="1.2"/>
<text x="610" y="1254" fill="#7ee787" font-size="12" text-anchor="middle">rs1_val</text>
<rect x="607" y="1405" width="26" height="70" rx="6" fill="#30363d" stroke="#8b949e" stroke-width="2"/>
<text x="620" y="1445" fill="#fff" font-size="12" font-weight="500" text-anchor="middle">Splitter</text>
<rect x="647" y="937" width="86" height="26" rx="13" fill="#21262d" stroke="#444c56" stroke-width="1.2"/>
<text x="690" y="954" fill="#7ee787" font-size="12" text-anchor="middle">pc_plus_4</text>
<rect x="669" y="1447" width="102" height="26" rx="13" fill="#21262d" stroke="#444c56" stroke-width="1.2"/>
<text x="720" y="1464" fill="#7ee787" font-size="12" text-anchor="middle">opcode_bit3</text>
<rect x="697" y="1077" width="86" height="26" rx="13" fill="#21262d" stroke="#444c56" stroke-width="1.2"/>
<text x="740" y="1094" fill="#7ee787" font-size="12" text-anchor="middle">pc_branch</text>
<rect x="737" y="1225" width="26" height="70" rx="6" fill="#30363d" stroke="#8b949e" stroke-width="2"/>
<text x="750" y="1265" fill="#fff" font-size="12" font-weight="500" text-anchor="middle">Splitter</text>
<rect x="750" y="597" width="40" height="26" rx="13" fill="#21262d" stroke="#444c56" stroke-width="1.2"/>
<text x="770" y="614" fill="#7ee787" font-size="12" text-anchor="middle">pc</text>
<rect x="797" y="1305" width="26" height="70" rx="6" fill="#30363d" stroke="#8b949e" stroke-width="2"/>
<text x="810" y="1345" fill="#fff" font-size="12" font-weight="500" text-anchor="middle">Splitter</text>
<rect x="808" y="1285" width="64" height="30" rx="6" fill="#30363d" stroke="#8b949e" stroke-width="2"/>
<text x="840" y="1305" fill="#fff" font-size="12" font-weight="500" text-anchor="middle">const</text>
<rect x="820" y="677" width="40" height="26" rx="13" fill="#21262d" stroke="#444c56" stroke-width="1.2"/>
<text x="840" y="694" fill="#7ee787" font-size="12" text-anchor="middle">pc</text>
<rect x="815" y="455" width="70" height="50" rx="6" fill="#238636" stroke="#56d364" stroke-width="2"/>
<text x="850" y="485" fill="#fff" font-size="13" font-weight="600" text-anchor="middle">pc_out</text>
<rect x="865" y="1327" width="70" height="26" rx="13" fill="#21262d" stroke="#444c56" stroke-width="1.2"/>
<text x="900" y="1344" fill="#7ee787" font-size="12" text-anchor="middle">pc_jalr</text>
<rect x="917" y="1457" width="46" height="26" rx="13" fill="#21262d" stroke="#444c56" stroke-width="1.2"/>
<text x="940" y="1474" fill="#7ee787" font-size="12" text-anchor="middle">jump</text>
<rect x="918" y="1125" width="64" height="30" rx="6" fill="#30363d" stroke="#8b949e" stroke-width="2"/>
<text x="950" y="1145" fill="#fff" font-size="12" font-weight="500" text-anchor="middle">EXT</text>
<rect x="1000" y="1468" width="60" height="44" rx="6" fill="#6e7681" stroke="#b1bac4" stroke-width="2"/>
<text x="1030" y="1495" fill="#fff" font-size="12" font-weight="500" text-anchor="middle">AND</text>
<rect x="1000" y="1578" width="60" height="44" rx="6" fill="#6e7681" stroke="#b1bac4" stroke-width="2"/>
<text x="1030" y="1605" fill="#fff" font-size="12" font-weight="500" text-anchor="middle">AND</text>
<rect x="1130" y="1598" width="60" height="44" rx="6" fill="#6e7681" stroke="#b1bac4" stroke-width="2"/>
<text x="1160" y="1625" fill="#fff" font-size="12" font-weight="500" text-anchor="middle">OR</text>
<rect x="2670" y="238" width="60" height="44" rx="6" fill="#6e7681" stroke="#b1bac4" stroke-width="2"/>
<text x="2700" y="265" fill="#fff" font-size="12" font-weight="500" text-anchor="middle">AND</text>
<rect x="2680" y="448" width="60" height="44" rx="6" fill="#6e7681" stroke="#b1bac4" stroke-width="2"/>
<text x="2710" y="475" fill="#fff" font-size="12" font-weight="500" text-anchor="middle">NOT</text>
<rect x="2770" y="468" width="60" height="44" rx="6" fill="#6e7681" stroke="#b1bac4" stroke-width="2"/>
<text x="2800" y="495" fill="#fff" font-size="12" font-weight="500" text-anchor="middle">AND</text>
<rect x="900" y="1488" width="60" height="44" rx="6" fill="#6e7681" stroke="#b1bac4" stroke-width="2"/>
<text x="930" y="1515" fill="#fff" font-size="12" font-weight="500" text-anchor="middle">NOT</text>
<rect x="991" y="942" width="78" height="56" rx="6" fill="#1a7f37" stroke="#56d364" stroke-width="2"/>
<text x="1030" y="975" fill="#fff" font-size="12" font-weight="500" text-anchor="middle">MUX</text>
<rect x="2221" y="432" width="78" height="56" rx="6" fill="#1a7f37" stroke="#56d364" stroke-width="2"/>
<text x="2260" y="465" fill="#fff" font-size="12" font-weight="500" text-anchor="middle">MUX</text>
<rect x="2681" y="692" width="78" height="56" rx="6" fill="#1a7f37" stroke="#56d364" stroke-width="2"/>
<text x="2720" y="725" fill="#fff" font-size="12" font-weight="500" text-anchor="middle">MUX</text>
<rect x="631" y="1062" width="78" height="56" rx="6" fill="#bb8009" stroke="#f0c674" stroke-width="2"/>
<text x="670" y="1095" fill="#fff" font-size="12" font-weight="500" text-anchor="middle">Adder</text>
<rect x="631" y="862" width="78" height="56" rx="6" fill="#bb8009" stroke="#f0c674" stroke-width="2"/>
<text x="670" y="895" fill="#fff" font-size="12" font-weight="500" text-anchor="middle">Adder</text>
<rect x="641" y="1232" width="78" height="56" rx="6" fill="#bb8009" stroke="#f0c674" stroke-width="2"/>
<text x="680" y="1265" fill="#fff" font-size="12" font-weight="500" text-anchor="middle">Adder</text>
<rect x="971" y="658" width="178" height="64" rx="10" fill="#1f6feb" stroke="#79c0ff" stroke-width="2"/>
<text x="1060" y="695" fill="#fff" font-size="14" font-weight="700" text-anchor="middle">Instruction_Memory</text>
<text x="1060" y="713" fill="#cfe2ff" font-size="9" text-anchor="middle">subcircuit</text>
<rect x="1565" y="598" width="150" height="64" rx="10" fill="#1f6feb" stroke="#79c0ff" stroke-width="2"/>
<text x="1640" y="635" fill="#fff" font-size="14" font-weight="700" text-anchor="middle">Control_Unit</text>
<text x="1640" y="653" fill="#cfe2ff" font-size="9" text-anchor="middle">subcircuit</text>
<rect x="1901" y="498" width="178" height="64" rx="10" fill="#1f6feb" stroke="#79c0ff" stroke-width="2"/>
<text x="1990" y="535" fill="#fff" font-size="14" font-weight="700" text-anchor="middle">Imediate_Generator</text>
<text x="1990" y="553" fill="#cfe2ff" font-size="9" text-anchor="middle">subcircuit</text>
<rect x="1965" y="158" width="150" height="64" rx="10" fill="#1f6feb" stroke="#79c0ff" stroke-width="2"/>
<text x="2040" y="195" fill="#fff" font-size="14" font-weight="700" text-anchor="middle">Register_File</text>
<text x="2040" y="213" fill="#cfe2ff" font-size="9" text-anchor="middle">subcircuit</text>
<rect x="1995" y="608" width="150" height="64" rx="10" fill="#1f6feb" stroke="#79c0ff" stroke-width="2"/>
<text x="2070" y="645" fill="#fff" font-size="14" font-weight="700" text-anchor="middle">ALU_Control</text>
<text x="2070" y="663" fill="#cfe2ff" font-size="9" text-anchor="middle">subcircuit</text>
<rect x="2275" y="608" width="150" height="64" rx="10" fill="#1f6feb" stroke="#79c0ff" stroke-width="2"/>
<text x="2350" y="645" fill="#fff" font-size="14" font-weight="700" text-anchor="middle">ALU</text>
<text x="2350" y="663" fill="#cfe2ff" font-size="9" text-anchor="middle">subcircuit</text>
<rect x="2446" y="208" width="169" height="64" rx="10" fill="#1f6feb" stroke="#79c0ff" stroke-width="2"/>
<text x="2530" y="245" fill="#fff" font-size="14" font-weight="700" text-anchor="middle">Branch_Comparator</text>
<text x="2530" y="263" fill="#cfe2ff" font-size="9" text-anchor="middle">subcircuit</text>
<rect x="2565" y="808" width="150" height="64" rx="10" fill="#1f6feb" stroke="#79c0ff" stroke-width="2"/>
<text x="2640" y="845" fill="#fff" font-size="14" font-weight="700" text-anchor="middle">Data_Memory</text>
<text x="2640" y="863" fill="#cfe2ff" font-size="9" text-anchor="middle">subcircuit</text>
<rect x="685" y="658" width="150" height="64" rx="10" fill="#1f6feb" stroke="#79c0ff" stroke-width="2"/>
<text x="760" y="695" fill="#fff" font-size="14" font-weight="700" text-anchor="middle">PC</text>
<text x="760" y="713" fill="#cfe2ff" font-size="9" text-anchor="middle">subcircuit</text>
</svg>