<svg xmlns="http://www.w3.org/2000/svg" viewBox="0 0 1220 600" width="1220" height="600" font-family="Inter, 'Helvetica Neue', 'Segoe UI', system-ui, Arial, sans-serif">
<defs>
<filter id="soft" x="-30%" y="-30%" width="160%" height="160%"><feDropShadow dx="0" dy="2" stdDeviation="4" flood-color="#000000" flood-opacity="0.45"/></filter>
<marker id="ar-data" markerWidth="10" markerHeight="10" refX="7.5" refY="4" orient="auto" markerUnits="userSpaceOnUse"><path d="M0,0 L8,4 L0,8 Z" fill="#7C8BA1"/></marker>
<marker id="ar-ctrl" markerWidth="10" markerHeight="10" refX="7.5" refY="4" orient="auto" markerUnits="userSpaceOnUse"><path d="M0,0 L8,4 L0,8 Z" fill="#F97316"/></marker>
<pattern id="grid" width="40" height="40" patternUnits="userSpaceOnUse"><path d="M40 0 L0 0 0 40" fill="none" stroke="#1B2740" stroke-width="1"/></pattern>
<linearGradient id="bgg" x1="0" y1="0" x2="0.6" y2="1"><stop offset="0" stop-color="#070A12"/><stop offset="1" stop-color="#0E1626"/></linearGradient>
</defs>
<rect width="1220" height="600" fill="url(#bgg)"/>
<rect width="1220" height="600" fill="url(#grid)" opacity="0.5"/>
<rect x="40" y="34" width="34" height="6" rx="3" fill="#38BDF8"/>
<text x="40" y="74" font-family="Inter, 'Helvetica Neue', 'Segoe UI', system-ui, Arial, sans-serif" font-size="30" font-weight="750" fill="#F8FAFC">Data Memory</text>
<text x="40" y="100" font-family="Inter, 'Helvetica Neue', 'Segoe UI', system-ui, Arial, sans-serif" font-size="14.5" fill="#9CA3AF">Word-addressed RAM with byte / half / word load &amp; store support</text>
<rect x="60" y="180" width="85" height="30" rx="15" fill="#123524" stroke="#6EE7B7" stroke-width="1.5"/>
<text x="102.5" y="199.5" text-anchor="middle" font-family="ui-monospace, 'SF Mono', Menlo, Consolas, monospace" font-size="12.5" font-weight="600" fill="#DCFCE7">address</text>
<rect x="145.0" y="186" width="28" height="18" rx="9" fill="#111827" stroke="#38BDF8" stroke-width="1" opacity="0.95"/>
<text x="159" y="199" text-anchor="middle" font-family="ui-monospace, 'SF Mono', Menlo, Consolas, monospace" font-size="10.5" fill="#38BDF8">32</text>
<rect x="60" y="240" width="112" height="30" rx="15" fill="#123524" stroke="#6EE7B7" stroke-width="1.5"/>
<text x="116.0" y="259.5" text-anchor="middle" font-family="ui-monospace, 'SF Mono', Menlo, Consolas, monospace" font-size="12.5" font-weight="600" fill="#DCFCE7">write_data</text>
<rect x="172.0" y="246" width="28" height="18" rx="9" fill="#111827" stroke="#38BDF8" stroke-width="1" opacity="0.95"/>
<text x="186" y="259" text-anchor="middle" font-family="ui-monospace, 'SF Mono', Menlo, Consolas, monospace" font-size="10.5" fill="#38BDF8">32</text>
<rect x="60" y="310" width="76" height="30" rx="15" fill="#123524" stroke="#6EE7B7" stroke-width="1.5"/>
<text x="98.0" y="329.5" text-anchor="middle" font-family="ui-monospace, 'SF Mono', Menlo, Consolas, monospace" font-size="12.5" font-weight="600" fill="#DCFCE7">funct3</text>
<rect x="140.0" y="316" width="20" height="18" rx="9" fill="#111827" stroke="#38BDF8" stroke-width="1" opacity="0.95"/>
<text x="150" y="329" text-anchor="middle" font-family="ui-monospace, 'SF Mono', Menlo, Consolas, monospace" font-size="10.5" fill="#38BDF8">3</text>
<rect x="60" y="375" width="94" height="30" rx="15" fill="#4A102A" stroke="#F43F5E" stroke-width="1.5"/>
<text x="107.0" y="394.5" text-anchor="middle" font-family="ui-monospace, 'SF Mono', Menlo, Consolas, monospace" font-size="12.5" font-weight="600" fill="#FFE4E6">mem_read</text>
<rect x="60" y="430" width="103" height="30" rx="15" fill="#4A102A" stroke="#F43F5E" stroke-width="1.5"/>
<text x="111.5" y="449.5" text-anchor="middle" font-family="ui-monospace, 'SF Mono', Menlo, Consolas, monospace" font-size="12.5" font-weight="600" fill="#FFE4E6">mem_write</text>
<rect x="60" y="485" width="58" height="30" rx="15" fill="#172033" stroke="#64748B" stroke-width="1.5"/>
<text x="89.0" y="504.5" text-anchor="middle" font-family="ui-monospace, 'SF Mono', Menlo, Consolas, monospace" font-size="12.5" font-weight="600" fill="#9CA3AF">clk</text>
<rect x="330" y="215" width="140" height="70" rx="14" fill="#10213A" stroke="#60A5FA" stroke-width="1.6" filter="url(#soft)"/>
<text x="400.0" y="246.0" text-anchor="middle" font-family="Inter, 'Helvetica Neue', 'Segoe UI', system-ui, Arial, sans-serif" font-size="16" font-weight="650" fill="#DBEAFE">Store Align</text>
<text x="400.0" y="266.0" text-anchor="middle" font-family="Inter, 'Helvetica Neue', 'Segoe UI', system-ui, Arial, sans-serif" font-size="11.5" fill="#92AAC9">byte/half/word</text>
<rect x="540" y="200" width="160" height="110" rx="14" fill="#123524" stroke="#6EE7B7" stroke-width="1.6" filter="url(#soft)"/>
<text x="620.0" y="251.0" text-anchor="middle" font-family="Inter, 'Helvetica Neue', 'Segoe UI', system-ui, Arial, sans-serif" font-size="16" font-weight="650" fill="#DCFCE7">RAM</text>
<text x="620.0" y="271.0" text-anchor="middle" font-family="Inter, 'Helvetica Neue', 'Segoe UI', system-ui, Arial, sans-serif" font-size="11.5" fill="#92C9AD">32-bit cells</text>
<rect x="770" y="215" width="150" height="80" rx="14" fill="#10213A" stroke="#60A5FA" stroke-width="1.6" filter="url(#soft)"/>
<text x="845.0" y="251.0" text-anchor="middle" font-family="Inter, 'Helvetica Neue', 'Segoe UI', system-ui, Arial, sans-serif" font-size="16" font-weight="650" fill="#DBEAFE">Load Extend</text>
<text x="845.0" y="271.0" text-anchor="middle" font-family="Inter, 'Helvetica Neue', 'Segoe UI', system-ui, Arial, sans-serif" font-size="11.5" fill="#92AAC9">sign / zero</text>
<rect x="1000" y="240" width="103" height="30" rx="15" fill="#3B1D0B" stroke="#F97316" stroke-width="1.5"/>
<text x="1051.5" y="259.5" text-anchor="middle" font-family="ui-monospace, 'SF Mono', Menlo, Consolas, monospace" font-size="12.5" font-weight="600" fill="#FFEDD5">read_data</text>
<rect x="1103.0" y="246" width="28" height="18" rx="9" fill="#111827" stroke="#38BDF8" stroke-width="1" opacity="0.95"/>
<text x="1117" y="259" text-anchor="middle" font-family="ui-monospace, 'SF Mono', Menlo, Consolas, monospace" font-size="10.5" fill="#38BDF8">32</text>
<path d="M 145 195 L 288.0 195.0 Q 300 195 300.0 207.0 L 300.0 218.0 Q 300 230 311.9 231.2 L 540 255.0 " fill="none" stroke="#38BDF8" stroke-width="3.0" stroke-linecap="round" stroke-linejoin="round" marker-end="url(#ar-data)"/>
<path d="M 145 195 L 498.0 195.0 Q 510 195 510.0 205.0 L 510.0 205.0 Q 510 215 522.0 215.0 L 540 215 " fill="none" stroke="#38BDF8" stroke-width="3.0" stroke-linecap="round" stroke-linejoin="round" marker-end="url(#ar-data)"/>
<path d="M 172 255 L 330 250.0 " fill="none" stroke="#38BDF8" stroke-width="3.0" stroke-linecap="round" stroke-linejoin="round" marker-end="url(#ar-data)"/>
<path d="M 470 250.0 L 540 255.0 " fill="none" stroke="#38BDF8" stroke-width="3.0" stroke-linecap="round" stroke-linejoin="round" marker-end="url(#ar-data)"/>
<path d="M 700 255.0 L 770 255.0 " fill="none" stroke="#38BDF8" stroke-width="3.0" stroke-linecap="round" stroke-linejoin="round" marker-end="url(#ar-data)"/>
<path d="M 920 255.0 L 1000 255 " fill="none" stroke="#38BDF8" stroke-width="3.0" stroke-linecap="round" stroke-linejoin="round" marker-end="url(#ar-data)"/>
<path d="M 136 325 L 288.0 325.0 Q 300 325 300.0 313.0 L 300.0 307.0 Q 300 295 311.9 293.8 L 400.0 285 " fill="none" stroke="#F97316" stroke-width="2.0" stroke-linecap="round" stroke-linejoin="round" marker-end="url(#ar-ctrl)"/>
<path d="M 136 325 L 728.0 325.0 Q 740 325 740.0 313.0 L 740.0 307.0 Q 740 295 752.0 295.0 L 845.0 295 " fill="none" stroke="#F97316" stroke-width="2.0" stroke-linecap="round" stroke-linejoin="round" marker-end="url(#ar-ctrl)"/>
<path d="M 163 445 L 488.0 445.0 Q 500 445 500.0 433.0 L 500.0 322.0 Q 500 310 512.0 310.0 L 620.0 310 " fill="none" stroke="#F97316" stroke-width="2.0" stroke-linecap="round" stroke-linejoin="round" marker-end="url(#ar-ctrl)"/>
<path d="M 154 390 L 748.0 390.0 Q 760 390 760.0 378.0 L 760.0 307.0 Q 760 295 772.0 295.0 L 845.0 295 " fill="none" stroke="#F97316" stroke-width="2.0" stroke-linecap="round" stroke-linejoin="round" marker-end="url(#ar-ctrl)"/>
<path d="M 118 500 L 608.0 500.0 Q 620 500 620.0 488.0 L 620.0 322.0 Q 620 310 632.0 310.0 L 660.0 310 " fill="none" stroke="#64748B" stroke-width="2.2" stroke-linecap="round" stroke-linejoin="round" marker-end="url(#ar-data)"/>
<rect x="540" y="360" width="480" height="110" rx="12" fill="#111827" stroke="#64748B" stroke-width="1.5" filter="url(#soft)"/>
<text x="556" y="384" font-family="Inter, 'Helvetica Neue', 'Segoe UI', system-ui, Arial, sans-serif" font-size="13" font-weight="700" fill="#D8DDF5">access widths</text>
<text x="556" y="406" font-family="ui-monospace, 'SF Mono', Menlo, Consolas, monospace" font-size="12.5" fill="#D8DDF5">loads : lb  lh  lw  lbu  lhu   (funct3)</text>
<text x="556" y="425" font-family="ui-monospace, 'SF Mono', Menlo, Consolas, monospace" font-size="12.5" fill="#D8DDF5">stores: sb  sh  sw</text>
<text x="556" y="444" font-family="ui-monospace, 'SF Mono', Menlo, Consolas, monospace" font-size="12.5" fill="#D8DDF5">lb/lh sign-extend · lbu/lhu zero-extend</text>
</svg>