<svg xmlns="http://www.w3.org/2000/svg" viewBox="0 0 1180 600" width="1180" height="600" font-family="Inter, 'Helvetica Neue', 'Segoe UI', system-ui, Arial, sans-serif">
<defs>
<filter id="soft" x="-30%" y="-30%" width="160%" height="160%"><feDropShadow dx="0" dy="2" stdDeviation="4" flood-color="#000000" flood-opacity="0.45"/></filter>
<marker id="ar-data" markerWidth="10" markerHeight="10" refX="7.5" refY="4" orient="auto" markerUnits="userSpaceOnUse"><path d="M0,0 L8,4 L0,8 Z" fill="#7C8BA1"/></marker>
<marker id="ar-ctrl" markerWidth="10" markerHeight="10" refX="7.5" refY="4" orient="auto" markerUnits="userSpaceOnUse"><path d="M0,0 L8,4 L0,8 Z" fill="#F97316"/></marker>
<pattern id="grid" width="40" height="40" patternUnits="userSpaceOnUse"><path d="M40 0 L0 0 0 40" fill="none" stroke="#1B2740" stroke-width="1"/></pattern>
<linearGradient id="bgg" x1="0" y1="0" x2="0.6" y2="1"><stop offset="0" stop-color="#070A12"/><stop offset="1" stop-color="#0E1626"/></linearGradient>
</defs>
<rect width="1180" height="600" fill="url(#bgg)"/>
<rect width="1180" height="600" fill="url(#grid)" opacity="0.5"/>
<rect x="40" y="34" width="34" height="6" rx="3" fill="#38BDF8"/>
<text x="40" y="74" font-family="Inter, 'Helvetica Neue', 'Segoe UI', system-ui, Arial, sans-serif" font-size="30" font-weight="750" fill="#F8FAFC">Immediate Generator</text>
<text x="40" y="100" font-family="Inter, 'Helvetica Neue', 'Segoe UI', system-ui, Arial, sans-serif" font-size="14.5" fill="#9CA3AF">Reassembles and sign-extends the immediate for every instruction format</text>
<rect x="60" y="220" width="121" height="30" rx="15" fill="#123524" stroke="#6EE7B7" stroke-width="1.5"/>
<text x="120.5" y="239.5" text-anchor="middle" font-family="ui-monospace, 'SF Mono', Menlo, Consolas, monospace" font-size="12.5" font-weight="600" fill="#DCFCE7">instruction</text>
<rect x="185.0" y="226" width="28" height="18" rx="9" fill="#111827" stroke="#38BDF8" stroke-width="1" opacity="0.95"/>
<text x="199" y="239" text-anchor="middle" font-family="ui-monospace, 'SF Mono', Menlo, Consolas, monospace" font-size="10.5" fill="#38BDF8">32</text>
<rect x="60" y="470" width="85" height="30" rx="15" fill="#123524" stroke="#6EE7B7" stroke-width="1.5"/>
<text x="102.5" y="489.5" text-anchor="middle" font-family="ui-monospace, 'SF Mono', Menlo, Consolas, monospace" font-size="12.5" font-weight="600" fill="#DCFCE7">imm_sel</text>
<rect x="151.0" y="476" width="20" height="18" rx="9" fill="#111827" stroke="#38BDF8" stroke-width="1" opacity="0.95"/>
<text x="161" y="489" text-anchor="middle" font-family="ui-monospace, 'SF Mono', Menlo, Consolas, monospace" font-size="10.5" fill="#38BDF8">3</text>
<rect x="320" y="130" width="170" height="54" rx="14" fill="#10213A" stroke="#60A5FA" stroke-width="1.6" filter="url(#soft)"/>
<text x="405.0" y="153.0" text-anchor="middle" font-family="Inter, 'Helvetica Neue', 'Segoe UI', system-ui, Arial, sans-serif" font-size="14" font-weight="650" fill="#DBEAFE">I-type</text>
<text x="405.0" y="173.0" text-anchor="middle" font-family="Inter, 'Helvetica Neue', 'Segoe UI', system-ui, Arial, sans-serif" font-size="11.5" fill="#92AAC9">imm[11:0]</text>
<path d="M 181 235 L 258.0 235.0 Q 270 235 270.0 223.0 L 270.0 169.0 Q 270 157 282.0 157.0 L 320 157.0 " fill="none" stroke="#64748B" stroke-width="2.2" stroke-linecap="round" stroke-linejoin="round" marker-end="url(#ar-data)"/>
<rect x="320" y="200" width="170" height="54" rx="14" fill="#10213A" stroke="#60A5FA" stroke-width="1.6" filter="url(#soft)"/>
<text x="405.0" y="223.0" text-anchor="middle" font-family="Inter, 'Helvetica Neue', 'Segoe UI', system-ui, Arial, sans-serif" font-size="14" font-weight="650" fill="#DBEAFE">S-type</text>
<text x="405.0" y="243.0" text-anchor="middle" font-family="Inter, 'Helvetica Neue', 'Segoe UI', system-ui, Arial, sans-serif" font-size="11.5" fill="#92AAC9">stores</text>
<path d="M 181 235 L 258.0 235.0 Q 270 235 270.0 231.0 L 270.0 231.0 Q 270 227 282.0 227.0 L 320 227.0 " fill="none" stroke="#64748B" stroke-width="2.2" stroke-linecap="round" stroke-linejoin="round" marker-end="url(#ar-data)"/>
<rect x="320" y="270" width="170" height="54" rx="14" fill="#10213A" stroke="#60A5FA" stroke-width="1.6" filter="url(#soft)"/>
<text x="405.0" y="293.0" text-anchor="middle" font-family="Inter, 'Helvetica Neue', 'Segoe UI', system-ui, Arial, sans-serif" font-size="14" font-weight="650" fill="#DBEAFE">B-type</text>
<text x="405.0" y="313.0" text-anchor="middle" font-family="Inter, 'Helvetica Neue', 'Segoe UI', system-ui, Arial, sans-serif" font-size="11.5" fill="#92AAC9">branches</text>
<path d="M 181 235 L 258.0 235.0 Q 270 235 270.0 247.0 L 270.0 285.0 Q 270 297 282.0 297.0 L 320 297.0 " fill="none" stroke="#64748B" stroke-width="2.2" stroke-linecap="round" stroke-linejoin="round" marker-end="url(#ar-data)"/>
<rect x="320" y="340" width="170" height="54" rx="14" fill="#10213A" stroke="#60A5FA" stroke-width="1.6" filter="url(#soft)"/>
<text x="405.0" y="363.0" text-anchor="middle" font-family="Inter, 'Helvetica Neue', 'Segoe UI', system-ui, Arial, sans-serif" font-size="14" font-weight="650" fill="#DBEAFE">U-type</text>
<text x="405.0" y="383.0" text-anchor="middle" font-family="Inter, 'Helvetica Neue', 'Segoe UI', system-ui, Arial, sans-serif" font-size="11.5" fill="#92AAC9">lui/auipc</text>
<path d="M 181 235 L 258.0 235.0 Q 270 235 270.0 247.0 L 270.0 355.0 Q 270 367 282.0 367.0 L 320 367.0 " fill="none" stroke="#64748B" stroke-width="2.2" stroke-linecap="round" stroke-linejoin="round" marker-end="url(#ar-data)"/>
<rect x="320" y="410" width="170" height="54" rx="14" fill="#10213A" stroke="#60A5FA" stroke-width="1.6" filter="url(#soft)"/>
<text x="405.0" y="433.0" text-anchor="middle" font-family="Inter, 'Helvetica Neue', 'Segoe UI', system-ui, Arial, sans-serif" font-size="14" font-weight="650" fill="#DBEAFE">J-type</text>
<text x="405.0" y="453.0" text-anchor="middle" font-family="Inter, 'Helvetica Neue', 'Segoe UI', system-ui, Arial, sans-serif" font-size="11.5" fill="#92AAC9">jal</text>
<path d="M 181 235 L 258.0 235.0 Q 270 235 270.0 247.0 L 270.0 425.0 Q 270 437 282.0 437.0 L 320 437.0 " fill="none" stroke="#64748B" stroke-width="2.2" stroke-linecap="round" stroke-linejoin="round" marker-end="url(#ar-data)"/>
<rect x="640" y="235" width="96" height="150" rx="14" fill="#08304A" stroke="#38BDF8" stroke-width="1.6" filter="url(#soft)"/>
<text x="688.0" y="306.0" text-anchor="middle" font-family="Inter, 'Helvetica Neue', 'Segoe UI', system-ui, Arial, sans-serif" font-size="16" font-weight="650" fill="#E0F2FE">MUX</text>
<text x="688.0" y="326.0" text-anchor="middle" font-family="Inter, 'Helvetica Neue', 'Segoe UI', system-ui, Arial, sans-serif" font-size="11.5" fill="#8FC4DD">imm_sel</text>
<path d="M 490 157.0 L 588.0 157.0 Q 600 157 600.0 169.0 L 600.0 298.0 Q 600 310 612.0 310.0 L 640 310.0 " fill="none" stroke="#64748B" stroke-width="2.2" stroke-linecap="round" stroke-linejoin="round" marker-end="url(#ar-data)"/>
<path d="M 490 227.0 L 588.0 227.0 Q 600 227 600.0 239.0 L 600.0 298.0 Q 600 310 612.0 310.0 L 640 310.0 " fill="none" stroke="#64748B" stroke-width="2.2" stroke-linecap="round" stroke-linejoin="round" marker-end="url(#ar-data)"/>
<path d="M 490 297.0 L 588.0 297.0 Q 600 297 600.0 303.5 L 600.0 303.5 Q 600 310 612.0 310.0 L 640 310.0 " fill="none" stroke="#64748B" stroke-width="2.2" stroke-linecap="round" stroke-linejoin="round" marker-end="url(#ar-data)"/>
<path d="M 490 367.0 L 588.0 367.0 Q 600 367 600.0 355.0 L 600.0 322.0 Q 600 310 612.0 310.0 L 640 310.0 " fill="none" stroke="#64748B" stroke-width="2.2" stroke-linecap="round" stroke-linejoin="round" marker-end="url(#ar-data)"/>
<path d="M 490 437.0 L 588.0 437.0 Q 600 437 600.0 425.0 L 600.0 322.0 Q 600 310 612.0 310.0 L 640 310.0 " fill="none" stroke="#64748B" stroke-width="2.2" stroke-linecap="round" stroke-linejoin="round" marker-end="url(#ar-data)"/>
<path d="M 145 485 L 676.0 485.0 Q 688 485 688.0 473.0 L 688.0 385 " fill="none" stroke="#F97316" stroke-width="2.0" stroke-linecap="round" stroke-linejoin="round" marker-end="url(#ar-ctrl)"/>
<rect x="830" y="295" width="85" height="30" rx="15" fill="#3B1D0B" stroke="#F97316" stroke-width="1.5"/>
<text x="872.5" y="314.5" text-anchor="middle" font-family="ui-monospace, 'SF Mono', Menlo, Consolas, monospace" font-size="12.5" font-weight="600" fill="#FFEDD5">imm_out</text>
<rect x="917.0" y="301" width="28" height="18" rx="9" fill="#111827" stroke="#38BDF8" stroke-width="1" opacity="0.95"/>
<text x="931" y="314" text-anchor="middle" font-family="ui-monospace, 'SF Mono', Menlo, Consolas, monospace" font-size="10.5" fill="#38BDF8">32</text>
<path d="M 736 310.0 L 830 310 " fill="none" stroke="#38BDF8" stroke-width="3.0" stroke-linecap="round" stroke-linejoin="round" marker-end="url(#ar-data)"/>
<text x="960" y="250" text-anchor="start" font-family="Inter, 'Helvetica Neue', 'Segoe UI', system-ui, Arial, sans-serif" font-size="12.5" font-weight="400" fill="#9CA3AF">Each format scatters the</text>
<text x="960" y="270" text-anchor="start" font-family="Inter, 'Helvetica Neue', 'Segoe UI', system-ui, Arial, sans-serif" font-size="12.5" font-weight="400" fill="#9CA3AF">immediate bits differently;</text>
<text x="960" y="290" text-anchor="start" font-family="Inter, 'Helvetica Neue', 'Segoe UI', system-ui, Arial, sans-serif" font-size="12.5" font-weight="400" fill="#9CA3AF">all are sign-extended to</text>
<text x="960" y="310" text-anchor="start" font-family="Inter, 'Helvetica Neue', 'Segoe UI', system-ui, Arial, sans-serif" font-size="12.5" font-weight="400" fill="#9CA3AF">a full 32-bit value.</text>
</svg>