<svg xmlns="http://www.w3.org/2000/svg" viewBox="517 2131 721 314" width="721" height="314" font-family="SFMono-Regular,Consolas,monospace">
<rect x="517" y="2131" width="721" height="314" fill="#0d1117"/>
<g opacity="0.5">
<line x1="500" y1="2131" x2="500" y2="2445" stroke="#161b22" stroke-width="1"/>
<line x1="550" y1="2131" x2="550" y2="2445" stroke="#161b22" stroke-width="1"/>
<line x1="600" y1="2131" x2="600" y2="2445" stroke="#161b22" stroke-width="1"/>
<line x1="650" y1="2131" x2="650" y2="2445" stroke="#161b22" stroke-width="1"/>
<line x1="700" y1="2131" x2="700" y2="2445" stroke="#161b22" stroke-width="1"/>
<line x1="750" y1="2131" x2="750" y2="2445" stroke="#161b22" stroke-width="1"/>
<line x1="800" y1="2131" x2="800" y2="2445" stroke="#161b22" stroke-width="1"/>
<line x1="850" y1="2131" x2="850" y2="2445" stroke="#161b22" stroke-width="1"/>
<line x1="900" y1="2131" x2="900" y2="2445" stroke="#161b22" stroke-width="1"/>
<line x1="950" y1="2131" x2="950" y2="2445" stroke="#161b22" stroke-width="1"/>
<line x1="1000" y1="2131" x2="1000" y2="2445" stroke="#161b22" stroke-width="1"/>
<line x1="1050" y1="2131" x2="1050" y2="2445" stroke="#161b22" stroke-width="1"/>
<line x1="1100" y1="2131" x2="1100" y2="2445" stroke="#161b22" stroke-width="1"/>
<line x1="1150" y1="2131" x2="1150" y2="2445" stroke="#161b22" stroke-width="1"/>
<line x1="1200" y1="2131" x2="1200" y2="2445" stroke="#161b22" stroke-width="1"/>
<line x1="517" y1="2100" x2="1238" y2="2100" stroke="#161b22" stroke-width="1"/>
<line x1="517" y1="2150" x2="1238" y2="2150" stroke="#161b22" stroke-width="1"/>
<line x1="517" y1="2200" x2="1238" y2="2200" stroke="#161b22" stroke-width="1"/>
<line x1="517" y1="2250" x2="1238" y2="2250" stroke="#161b22" stroke-width="1"/>
<line x1="517" y1="2300" x2="1238" y2="2300" stroke="#161b22" stroke-width="1"/>
<line x1="517" y1="2350" x2="1238" y2="2350" stroke="#161b22" stroke-width="1"/>
<line x1="517" y1="2400" x2="1238" y2="2400" stroke="#161b22" stroke-width="1"/>
</g>
<text x="539" y="2165" fill="#e6edf3" font-size="26" font-weight="700">Instruction_Memory</text>
<text x="539" y="2187" fill="#8b949e" font-size="13">RV32I CPU &#183; Logisim-Evolution schematic</text>
<g stroke-linecap="round">
<line x1="1010" y1="2290" x2="1050" y2="2290" stroke="#58a6ff" stroke-width="2.4" opacity="0.85"/>
<line x1="1050" y1="2290" x2="1050" y2="2340" stroke="#58a6ff" stroke-width="2.4" opacity="0.85"/>
<line x1="1050" y1="2340" x2="1120" y2="2340" stroke="#58a6ff" stroke-width="2.4" opacity="0.85"/>
<line x1="630" y1="2350" x2="700" y2="2350" stroke="#58a6ff" stroke-width="2.4" opacity="0.85"/>
<line x1="720" y1="2320" x2="730" y2="2320" stroke="#58a6ff" stroke-width="2.4" opacity="0.85"/>
<line x1="730" y1="2240" x2="730" y2="2320" stroke="#58a6ff" stroke-width="2.4" opacity="0.85"/>
<line x1="730" y1="2240" x2="770" y2="2240" stroke="#58a6ff" stroke-width="2.4" opacity="0.85"/>
</g>
<rect x="1063" y="2315" width="115" height="50" rx="6" fill="#238636" stroke="#56d364" stroke-width="2"/>
<text x="1120" y="2345" fill="#fff" font-size="13" font-weight="600" text-anchor="middle">instruction</text>
<rect x="577" y="2325" width="106" height="50" rx="6" fill="#238636" stroke="#56d364" stroke-width="2"/>
<text x="630" y="2355" fill="#fff" font-size="13" font-weight="600" text-anchor="middle">circuit_pc</text>
<rect x="687" y="2315" width="26" height="70" rx="6" fill="#30363d" stroke="#8b949e" stroke-width="2"/>
<text x="700" y="2355" fill="#fff" font-size="12" font-weight="500" text-anchor="middle">Splitter</text>
<rect x="704" y="2191" width="132" height="78" rx="6" fill="#8957e5" stroke="#d2a8ff" stroke-width="2"/>
<text x="770" y="2235" fill="#fff" font-size="12" font-weight="500" text-anchor="middle">read_only_memory_block</text>
</svg>