<svg xmlns="http://www.w3.org/2000/svg" viewBox="0 0 940 420" width="940" height="420" font-family="Inter, 'Helvetica Neue', 'Segoe UI', system-ui, Arial, sans-serif">
<defs>
<filter id="soft" x="-30%" y="-30%" width="160%" height="160%"><feDropShadow dx="0" dy="2" stdDeviation="4" flood-color="#000000" flood-opacity="0.45"/></filter>
<marker id="ar-data" markerWidth="10" markerHeight="10" refX="7.5" refY="4" orient="auto" markerUnits="userSpaceOnUse"><path d="M0,0 L8,4 L0,8 Z" fill="#7C8BA1"/></marker>
<marker id="ar-ctrl" markerWidth="10" markerHeight="10" refX="7.5" refY="4" orient="auto" markerUnits="userSpaceOnUse"><path d="M0,0 L8,4 L0,8 Z" fill="#F97316"/></marker>
<pattern id="grid" width="40" height="40" patternUnits="userSpaceOnUse"><path d="M40 0 L0 0 0 40" fill="none" stroke="#1B2740" stroke-width="1"/></pattern>
<linearGradient id="bgg" x1="0" y1="0" x2="0.6" y2="1"><stop offset="0" stop-color="#070A12"/><stop offset="1" stop-color="#0E1626"/></linearGradient>
</defs>
<rect width="940" height="420" fill="url(#bgg)"/>
<rect width="940" height="420" fill="url(#grid)" opacity="0.5"/>
<rect x="40" y="34" width="34" height="6" rx="3" fill="#38BDF8"/>
<text x="40" y="74" font-family="Inter, 'Helvetica Neue', 'Segoe UI', system-ui, Arial, sans-serif" font-size="30" font-weight="750" fill="#F8FAFC">Program Counter</text>
<text x="40" y="100" font-family="Inter, 'Helvetica Neue', 'Segoe UI', system-ui, Arial, sans-serif" font-size="14.5" fill="#9CA3AF">Holds the address of the current instruction</text>
<rect x="60" y="180" width="85" height="30" rx="15" fill="#123524" stroke="#6EE7B7" stroke-width="1.5"/>
<text x="102.5" y="199.5" text-anchor="middle" font-family="ui-monospace, 'SF Mono', Menlo, Consolas, monospace" font-size="12.5" font-weight="600" fill="#DCFCE7">next_pc</text>
<rect x="165.0" y="186" width="28" height="18" rx="9" fill="#111827" stroke="#38BDF8" stroke-width="1" opacity="0.95"/>
<text x="179" y="199" text-anchor="middle" font-family="ui-monospace, 'SF Mono', Menlo, Consolas, monospace" font-size="10.5" fill="#38BDF8">32</text>
<rect x="60" y="250" width="67" height="30" rx="15" fill="#172033" stroke="#64748B" stroke-width="1.5"/>
<text x="93.5" y="269.5" text-anchor="middle" font-family="ui-monospace, 'SF Mono', Menlo, Consolas, monospace" font-size="12.5" font-weight="600" fill="#9CA3AF">reset</text>
<rect x="60" y="305" width="58" height="30" rx="15" fill="#172033" stroke="#64748B" stroke-width="1.5"/>
<text x="89.0" y="324.5" text-anchor="middle" font-family="ui-monospace, 'SF Mono', Menlo, Consolas, monospace" font-size="12.5" font-weight="600" fill="#9CA3AF">clk</text>
<rect x="320" y="175" width="90" height="70" rx="14" fill="#08304A" stroke="#38BDF8" stroke-width="1.6" filter="url(#soft)"/>
<text x="365.0" y="206.0" text-anchor="middle" font-family="Inter, 'Helvetica Neue', 'Segoe UI', system-ui, Arial, sans-serif" font-size="16" font-weight="650" fill="#E0F2FE">MUX</text>
<text x="365.0" y="226.0" text-anchor="middle" font-family="Inter, 'Helvetica Neue', 'Segoe UI', system-ui, Arial, sans-serif" font-size="11.5" fill="#8FC4DD">reset→0</text>
<rect x="520" y="165" width="150" height="90" rx="14" fill="#10213A" stroke="#60A5FA" stroke-width="1.6" filter="url(#soft)"/>
<text x="595.0" y="206.0" text-anchor="middle" font-family="Inter, 'Helvetica Neue', 'Segoe UI', system-ui, Arial, sans-serif" font-size="16" font-weight="650" fill="#DBEAFE">PC Register</text>
<text x="595.0" y="226.0" text-anchor="middle" font-family="Inter, 'Helvetica Neue', 'Segoe UI', system-ui, Arial, sans-serif" font-size="11.5" fill="#92AAC9">32-bit, clocked</text>
<rect x="770" y="200" width="58" height="30" rx="15" fill="#3B1D0B" stroke="#F97316" stroke-width="1.5"/>
<text x="799.0" y="219.5" text-anchor="middle" font-family="ui-monospace, 'SF Mono', Menlo, Consolas, monospace" font-size="12.5" font-weight="600" fill="#FFEDD5">pc</text>
<rect x="736.0" y="206" width="28" height="18" rx="9" fill="#111827" stroke="#38BDF8" stroke-width="1" opacity="0.95"/>
<text x="750" y="219" text-anchor="middle" font-family="ui-monospace, 'SF Mono', Menlo, Consolas, monospace" font-size="10.5" fill="#38BDF8">32</text>
<path d="M 145 195 L 320 210.0 " fill="none" stroke="#38BDF8" stroke-width="3.0" stroke-linecap="round" stroke-linejoin="round" marker-end="url(#ar-data)"/>
<path d="M 127 265 L 258.0 265.0 Q 270 265 270.0 253.0 L 270.0 237.0 Q 270 225 281.7 227.5 L 365.0 245 " fill="none" stroke="#F97316" stroke-width="2.0" stroke-linecap="round" stroke-linejoin="round" marker-end="url(#ar-ctrl)"/>
<path d="M 410 210.0 L 520 210.0 " fill="none" stroke="#38BDF8" stroke-width="3.0" stroke-linecap="round" stroke-linejoin="round" marker-end="url(#ar-data)"/>
<path d="M 118 320 L 458.0 320.0 Q 470 320 470.0 308.0 L 470.0 267.0 Q 470 255 482.0 255.0 L 595.0 255 " fill="none" stroke="#64748B" stroke-width="2.2" stroke-linecap="round" stroke-linejoin="round" marker-end="url(#ar-data)"/>
<path d="M 670 210.0 L 770 215 " fill="none" stroke="#38BDF8" stroke-width="3.0" stroke-linecap="round" stroke-linejoin="round" marker-end="url(#ar-data)"/>
<path d="M 595.0 165 L 595.0 142.0 Q 595 130 583.0 130.0 L 282.0 130.0 Q 270 130 270.0 142.0 L 270 175 " fill="none" stroke="#64748B" stroke-width="2.2" stroke-linecap="round" stroke-linejoin="round" marker-end="url(#ar-data)"/>
<text x="430" y="120" text-anchor="start" font-family="ui-monospace, 'SF Mono', Menlo, Consolas, monospace" font-size="11.5" font-weight="400" fill="#6B7689">← next-PC fed back from datapath</text>
</svg>