<svg xmlns="http://www.w3.org/2000/svg" viewBox="61 485 472 360" width="472" height="360" font-family="SFMono-Regular,Consolas,monospace">
<rect x="61" y="485" width="472" height="360" fill="#0d1117"/>
<g opacity="0.5">
<line x1="50" y1="485" x2="50" y2="845" stroke="#161b22" stroke-width="1"/>
<line x1="100" y1="485" x2="100" y2="845" stroke="#161b22" stroke-width="1"/>
<line x1="150" y1="485" x2="150" y2="845" stroke="#161b22" stroke-width="1"/>
<line x1="200" y1="485" x2="200" y2="845" stroke="#161b22" stroke-width="1"/>
<line x1="250" y1="485" x2="250" y2="845" stroke="#161b22" stroke-width="1"/>
<line x1="300" y1="485" x2="300" y2="845" stroke="#161b22" stroke-width="1"/>
<line x1="350" y1="485" x2="350" y2="845" stroke="#161b22" stroke-width="1"/>
<line x1="400" y1="485" x2="400" y2="845" stroke="#161b22" stroke-width="1"/>
<line x1="450" y1="485" x2="450" y2="845" stroke="#161b22" stroke-width="1"/>
<line x1="500" y1="485" x2="500" y2="845" stroke="#161b22" stroke-width="1"/>
<line x1="61" y1="450" x2="533" y2="450" stroke="#161b22" stroke-width="1"/>
<line x1="61" y1="500" x2="533" y2="500" stroke="#161b22" stroke-width="1"/>
<line x1="61" y1="550" x2="533" y2="550" stroke="#161b22" stroke-width="1"/>
<line x1="61" y1="600" x2="533" y2="600" stroke="#161b22" stroke-width="1"/>
<line x1="61" y1="650" x2="533" y2="650" stroke="#161b22" stroke-width="1"/>
<line x1="61" y1="700" x2="533" y2="700" stroke="#161b22" stroke-width="1"/>
<line x1="61" y1="750" x2="533" y2="750" stroke="#161b22" stroke-width="1"/>
<line x1="61" y1="800" x2="533" y2="800" stroke="#161b22" stroke-width="1"/>
</g>
<text x="83" y="519" fill="#e6edf3" font-size="26" font-weight="700">PC</text>
<text x="83" y="541" fill="#8b949e" font-size="13">RV32I CPU &#183; Logisim-Evolution schematic</text>
<g stroke-linecap="round">
<line x1="160" y1="570" x2="180" y2="570" stroke="#58a6ff" stroke-width="2.4" opacity="0.85"/>
<line x1="160" y1="640" x2="270" y2="640" stroke="#58a6ff" stroke-width="2.4" opacity="0.85"/>
<line x1="160" y1="680" x2="280" y2="680" stroke="#58a6ff" stroke-width="2.4" opacity="0.85"/>
<line x1="160" y1="760" x2="320" y2="760" stroke="#58a6ff" stroke-width="2.4" opacity="0.85"/>
<line x1="180" y1="570" x2="180" y2="620" stroke="#58a6ff" stroke-width="2.4" opacity="0.85"/>
<line x1="180" y1="620" x2="270" y2="620" stroke="#58a6ff" stroke-width="2.4" opacity="0.85"/>
<line x1="280" y1="650" x2="280" y2="680" stroke="#58a6ff" stroke-width="2.4" opacity="0.85"/>
<line x1="300" y1="630" x2="310" y2="630" stroke="#58a6ff" stroke-width="2.4" opacity="0.85"/>
<line x1="310" y1="630" x2="310" y2="720" stroke="#58a6ff" stroke-width="2.4" opacity="0.85"/>
<line x1="310" y1="720" x2="320" y2="720" stroke="#58a6ff" stroke-width="2.4" opacity="0.85"/>
<line x1="380" y1="720" x2="420" y2="720" stroke="#58a6ff" stroke-width="2.4" opacity="0.85"/>
</g>
<rect x="121" y="545" width="79" height="50" rx="6" fill="#238636" stroke="#56d364" stroke-width="2"/>
<text x="160" y="575" fill="#fff" font-size="13" font-weight="600" text-anchor="middle">next_pc</text>
<rect x="128" y="625" width="64" height="30" rx="6" fill="#30363d" stroke="#8b949e" stroke-width="2"/>
<text x="160" y="645" fill="#fff" font-size="12" font-weight="500" text-anchor="middle">const</text>
<rect x="130" y="655" width="61" height="50" rx="6" fill="#238636" stroke="#56d364" stroke-width="2"/>
<text x="160" y="685" fill="#fff" font-size="13" font-weight="600" text-anchor="middle">reset</text>
<rect x="137" y="735" width="46" height="50" rx="6" fill="#238636" stroke="#56d364" stroke-width="2"/>
<text x="160" y="765" fill="#fff" font-size="13" font-weight="600" text-anchor="middle">clk</text>
<rect x="288" y="725" width="64" height="30" rx="6" fill="#30363d" stroke="#8b949e" stroke-width="2"/>
<text x="320" y="745" fill="#fff" font-size="12" font-weight="500" text-anchor="middle">const</text>
<rect x="367" y="695" width="106" height="50" rx="6" fill="#238636" stroke="#56d364" stroke-width="2"/>
<text x="420" y="725" fill="#fff" font-size="13" font-weight="600" text-anchor="middle">circuit_pc</text>
<rect x="261" y="602" width="78" height="56" rx="6" fill="#1a7f37" stroke="#56d364" stroke-width="2"/>
<text x="300" y="635" fill="#fff" font-size="12" font-weight="500" text-anchor="middle">MUX</text>
<rect x="278" y="662" width="84" height="56" rx="6" fill="#8957e5" stroke="#d2a8ff" stroke-width="2"/>
<text x="320" y="695" fill="#fff" font-size="12" font-weight="500" text-anchor="middle">Register</text>
</svg>