<svg xmlns="http://www.w3.org/2000/svg" viewBox="0 0 1180 620" width="1180" height="620" font-family="Inter, 'Helvetica Neue', 'Segoe UI', system-ui, Arial, sans-serif">
<defs>
<filter id="soft" x="-30%" y="-30%" width="160%" height="160%"><feDropShadow dx="0" dy="2" stdDeviation="4" flood-color="#000000" flood-opacity="0.45"/></filter>
<marker id="ar-data" markerWidth="10" markerHeight="10" refX="7.5" refY="4" orient="auto" markerUnits="userSpaceOnUse"><path d="M0,0 L8,4 L0,8 Z" fill="#7C8BA1"/></marker>
<marker id="ar-ctrl" markerWidth="10" markerHeight="10" refX="7.5" refY="4" orient="auto" markerUnits="userSpaceOnUse"><path d="M0,0 L8,4 L0,8 Z" fill="#F97316"/></marker>
<pattern id="grid" width="40" height="40" patternUnits="userSpaceOnUse"><path d="M40 0 L0 0 0 40" fill="none" stroke="#1B2740" stroke-width="1"/></pattern>
<linearGradient id="bgg" x1="0" y1="0" x2="0.6" y2="1"><stop offset="0" stop-color="#070A12"/><stop offset="1" stop-color="#0E1626"/></linearGradient>
</defs>
<rect width="1180" height="620" fill="url(#bgg)"/>
<rect width="1180" height="620" fill="url(#grid)" opacity="0.5"/>
<rect x="40" y="34" width="34" height="6" rx="3" fill="#38BDF8"/>
<text x="40" y="74" font-family="Inter, 'Helvetica Neue', 'Segoe UI', system-ui, Arial, sans-serif" font-size="30" font-weight="750" fill="#F8FAFC">Register File</text>
<text x="40" y="100" font-family="Inter, 'Helvetica Neue', 'Segoe UI', system-ui, Arial, sans-serif" font-size="14.5" fill="#9CA3AF">32 × 32-bit registers · two read ports, one write port · x0 hard-wired to 0</text>
<rect x="60" y="170" width="58" height="30" rx="15" fill="#123524" stroke="#6EE7B7" stroke-width="1.5"/>
<text x="89.0" y="189.5" text-anchor="middle" font-family="ui-monospace, 'SF Mono', Menlo, Consolas, monospace" font-size="12.5" font-weight="600" fill="#DCFCE7">rs1</text>
<rect x="122.0" y="176" width="20" height="18" rx="9" fill="#111827" stroke="#38BDF8" stroke-width="1" opacity="0.95"/>
<text x="132" y="189" text-anchor="middle" font-family="ui-monospace, 'SF Mono', Menlo, Consolas, monospace" font-size="10.5" fill="#38BDF8">5</text>
<rect x="60" y="225" width="58" height="30" rx="15" fill="#123524" stroke="#6EE7B7" stroke-width="1.5"/>
<text x="89.0" y="244.5" text-anchor="middle" font-family="ui-monospace, 'SF Mono', Menlo, Consolas, monospace" font-size="12.5" font-weight="600" fill="#DCFCE7">rs2</text>
<rect x="122.0" y="231" width="20" height="18" rx="9" fill="#111827" stroke="#38BDF8" stroke-width="1" opacity="0.95"/>
<text x="132" y="244" text-anchor="middle" font-family="ui-monospace, 'SF Mono', Menlo, Consolas, monospace" font-size="10.5" fill="#38BDF8">5</text>
<rect x="60" y="300" width="58" height="30" rx="15" fill="#123524" stroke="#6EE7B7" stroke-width="1.5"/>
<text x="89.0" y="319.5" text-anchor="middle" font-family="ui-monospace, 'SF Mono', Menlo, Consolas, monospace" font-size="12.5" font-weight="600" fill="#DCFCE7">rd</text>
<rect x="122.0" y="306" width="20" height="18" rx="9" fill="#111827" stroke="#38BDF8" stroke-width="1" opacity="0.95"/>
<text x="132" y="319" text-anchor="middle" font-family="ui-monospace, 'SF Mono', Menlo, Consolas, monospace" font-size="10.5" fill="#38BDF8">5</text>
<rect x="60" y="355" width="112" height="30" rx="15" fill="#123524" stroke="#6EE7B7" stroke-width="1.5"/>
<text x="116.0" y="374.5" text-anchor="middle" font-family="ui-monospace, 'SF Mono', Menlo, Consolas, monospace" font-size="12.5" font-weight="600" fill="#DCFCE7">write_data</text>
<rect x="172.0" y="361" width="28" height="18" rx="9" fill="#111827" stroke="#38BDF8" stroke-width="1" opacity="0.95"/>
<text x="186" y="374" text-anchor="middle" font-family="ui-monospace, 'SF Mono', Menlo, Consolas, monospace" font-size="10.5" fill="#38BDF8">32</text>
<rect x="60" y="420" width="103" height="30" rx="15" fill="#4A102A" stroke="#F43F5E" stroke-width="1.5"/>
<text x="111.5" y="439.5" text-anchor="middle" font-family="ui-monospace, 'SF Mono', Menlo, Consolas, monospace" font-size="12.5" font-weight="600" fill="#FFE4E6">reg_write</text>
<rect x="60" y="475" width="58" height="30" rx="15" fill="#172033" stroke="#64748B" stroke-width="1.5"/>
<text x="89.0" y="494.5" text-anchor="middle" font-family="ui-monospace, 'SF Mono', Menlo, Consolas, monospace" font-size="12.5" font-weight="600" fill="#9CA3AF">clk</text>
<rect x="330" y="295" width="120" height="70" rx="14" fill="#08304A" stroke="#38BDF8" stroke-width="1.6" filter="url(#soft)"/>
<text x="390.0" y="326.0" text-anchor="middle" font-family="Inter, 'Helvetica Neue', 'Segoe UI', system-ui, Arial, sans-serif" font-size="16" font-weight="650" fill="#E0F2FE">Decoder</text>
<text x="390.0" y="346.0" text-anchor="middle" font-family="Inter, 'Helvetica Neue', 'Segoe UI', system-ui, Arial, sans-serif" font-size="11.5" fill="#8FC4DD">write enable</text>
<rect x="520" y="150" width="200" height="320" rx="14" fill="#10213A" stroke="#60A5FA" stroke-width="1.6" filter="url(#soft)"/>
<text x="620.0" y="306.0" text-anchor="middle" font-family="Inter, 'Helvetica Neue', 'Segoe UI', system-ui, Arial, sans-serif" font-size="16" font-weight="650" fill="#DBEAFE">Register Bank</text>
<text x="620.0" y="326.0" text-anchor="middle" font-family="Inter, 'Helvetica Neue', 'Segoe UI', system-ui, Arial, sans-serif" font-size="11.5" fill="#92AAC9">x0..x31  (x0 = 0)</text>
<rect x="800" y="165" width="96" height="70" rx="14" fill="#08304A" stroke="#38BDF8" stroke-width="1.6" filter="url(#soft)"/>
<text x="848.0" y="196.0" text-anchor="middle" font-family="Inter, 'Helvetica Neue', 'Segoe UI', system-ui, Arial, sans-serif" font-size="16" font-weight="650" fill="#E0F2FE">read MUX</text>
<text x="848.0" y="216.0" text-anchor="middle" font-family="Inter, 'Helvetica Neue', 'Segoe UI', system-ui, Arial, sans-serif" font-size="11.5" fill="#8FC4DD">rs1</text>
<rect x="800" y="285" width="96" height="70" rx="14" fill="#08304A" stroke="#38BDF8" stroke-width="1.6" filter="url(#soft)"/>
<text x="848.0" y="316.0" text-anchor="middle" font-family="Inter, 'Helvetica Neue', 'Segoe UI', system-ui, Arial, sans-serif" font-size="16" font-weight="650" fill="#E0F2FE">read MUX</text>
<text x="848.0" y="336.0" text-anchor="middle" font-family="Inter, 'Helvetica Neue', 'Segoe UI', system-ui, Arial, sans-serif" font-size="11.5" fill="#8FC4DD">rs2</text>
<rect x="960" y="185" width="112" height="30" rx="15" fill="#3B1D0B" stroke="#F97316" stroke-width="1.5"/>
<text x="1016.0" y="204.5" text-anchor="middle" font-family="ui-monospace, 'SF Mono', Menlo, Consolas, monospace" font-size="12.5" font-weight="600" fill="#FFEDD5">read_data1</text>
<rect x="1072.0" y="191" width="28" height="18" rx="9" fill="#111827" stroke="#38BDF8" stroke-width="1" opacity="0.95"/>
<text x="1086" y="204" text-anchor="middle" font-family="ui-monospace, 'SF Mono', Menlo, Consolas, monospace" font-size="10.5" fill="#38BDF8">32</text>
<rect x="960" y="305" width="112" height="30" rx="15" fill="#3B1D0B" stroke="#F97316" stroke-width="1.5"/>
<text x="1016.0" y="324.5" text-anchor="middle" font-family="ui-monospace, 'SF Mono', Menlo, Consolas, monospace" font-size="12.5" font-weight="600" fill="#FFEDD5">read_data2</text>
<rect x="1072.0" y="311" width="28" height="18" rx="9" fill="#111827" stroke="#38BDF8" stroke-width="1" opacity="0.95"/>
<text x="1086" y="324" text-anchor="middle" font-family="ui-monospace, 'SF Mono', Menlo, Consolas, monospace" font-size="10.5" fill="#38BDF8">32</text>
<path d="M 118 315 L 330 330.0 " fill="none" stroke="#64748B" stroke-width="2.2" stroke-linecap="round" stroke-linejoin="round" marker-end="url(#ar-data)"/>
<path d="M 163 435 L 278.0 435.0 Q 290 435 290.0 423.0 L 290.0 362.0 Q 290 350 301.9 351.8 L 390.0 365 " fill="none" stroke="#F97316" stroke-width="2.0" stroke-linecap="round" stroke-linejoin="round" marker-end="url(#ar-ctrl)"/>
<path d="M 450 330.0 L 478.0 330.0 Q 490 330 490.0 342.0 L 490.0 408.0 Q 490 420 502.0 420.0 L 520 420 " fill="none" stroke="#F97316" stroke-width="2.0" stroke-linecap="round" stroke-linejoin="round" marker-end="url(#ar-ctrl)"/>
<path d="M 172 370 L 238.0 370.0 Q 250 370 250.0 358.0 L 250.0 262.0 Q 250 250 262.0 250.0 L 520 250 " fill="none" stroke="#38BDF8" stroke-width="3.0" stroke-linecap="round" stroke-linejoin="round" marker-end="url(#ar-data)"/>
<path d="M 118 490 L 548.0 490.0 Q 560 490 560.0 480.0 L 560.0 480.0 Q 560 470 572.0 470.0 L 620.0 470 " fill="none" stroke="#64748B" stroke-width="2.2" stroke-linecap="round" stroke-linejoin="round" marker-end="url(#ar-data)"/>
<path d="M 118 185 L 258.0 185.0 Q 270 185 270.0 192.5 L 270.0 192.5 Q 270 200 282.0 200.0 L 520 200 " fill="none" stroke="#64748B" stroke-width="2.2" stroke-linecap="round" stroke-linejoin="round" marker-end="url(#ar-data)"/>
<path d="M 118 240 L 288.0 240.0 Q 300 240 300.0 232.0 L 300.0 232.0 Q 300 224 312.0 224.0 L 520 224 " fill="none" stroke="#64748B" stroke-width="2.2" stroke-linecap="round" stroke-linejoin="round" marker-end="url(#ar-data)"/>
<path d="M 720 310.0 L 748.0 310.0 Q 760 310 760.0 298.0 L 760.0 212.0 Q 760 200 772.0 200.0 L 800 200.0 " fill="none" stroke="#38BDF8" stroke-width="3.0" stroke-linecap="round" stroke-linejoin="round" marker-end="url(#ar-data)"/>
<path d="M 720 310.0 L 800 320.0 " fill="none" stroke="#38BDF8" stroke-width="3.0" stroke-linecap="round" stroke-linejoin="round" marker-end="url(#ar-data)"/>
<path d="M 896 200.0 L 960 200 " fill="none" stroke="#38BDF8" stroke-width="3.0" stroke-linecap="round" stroke-linejoin="round" marker-end="url(#ar-data)"/>
<path d="M 896 320.0 L 960 320 " fill="none" stroke="#38BDF8" stroke-width="3.0" stroke-linecap="round" stroke-linejoin="round" marker-end="url(#ar-data)"/>
</svg>